<?xml version="1.0" encoding="UTF-8" standalone="no"?>
<!-- Created with Inkscape (http://www.inkscape.org/) -->

<svg
   xmlns:dc="http://purl.org/dc/elements/1.1/"
   xmlns:cc="http://creativecommons.org/ns#"
   xmlns:rdf="http://www.w3.org/1999/02/22-rdf-syntax-ns#"
   xmlns:svg="http://www.w3.org/2000/svg"
   xmlns="http://www.w3.org/2000/svg"
   xmlns:sodipodi="http://sodipodi.sourceforge.net/DTD/sodipodi-0.dtd"
   xmlns:inkscape="http://www.inkscape.org/namespaces/inkscape"
   width="207.6785"
   height="244.52809"
   id="svg4952"
   version="1.1"
   inkscape:version="0.48.4 r9939"
   sodipodi:docname="New document 18">
  <defs
     id="defs4954" />
  <sodipodi:namedview
     id="base"
     pagecolor="#ffffff"
     bordercolor="#666666"
     borderopacity="1.0"
     inkscape:pageopacity="0.0"
     inkscape:pageshadow="2"
     inkscape:zoom="0.35"
     inkscape:cx="361.67767"
     inkscape:cy="-67.897118"
     inkscape:document-units="px"
     inkscape:current-layer="layer1"
     showgrid="false"
     fit-margin-top="0"
     fit-margin-left="0"
     fit-margin-right="0"
     fit-margin-bottom="0"
     inkscape:window-width="478"
     inkscape:window-height="413"
     inkscape:window-x="802"
     inkscape:window-y="359"
     inkscape:window-maximized="0" />
  <metadata
     id="metadata4957">
    <rdf:RDF>
      <cc:Work
         rdf:about="">
        <dc:format>image/svg+xml</dc:format>
        <dc:type
           rdf:resource="http://purl.org/dc/dcmitype/StillImage" />
        <dc:title></dc:title>
      </cc:Work>
    </rdf:RDF>
  </metadata>
  <g
     inkscape:label="Layer 1"
     inkscape:groupmode="layer"
     id="layer1"
     transform="translate(-13.322329,-219.93698)">
    <g
       transform="matrix(3.2057065,0,0,3.2057065,-2257.1193,-769.26711)"
       id="g1138">
      <path
         style="fill:#ffffff"
         inkscape:connector-curvature="0"
         d="m 741.026,384.855 c -19.8,0 -23.187,-4.125 -23.187,-4.125 0,0 -3.952,-5.688 -3.995,-11.768 0,0 -4.343,-4.56 -4.473,-15.371 -0.046,-3.825 -0.227,-7.126 0.304,-9.468 0.971,-4.273 2.953,-6.185 2.852,-8.172 -0.059,-1.116 -0.633,-2.601 0.273,-4.158 1.693,-2.909 4.631,-6.277 7.525,-9.139 4.547,-4.496 6.035,-8.846 16.531,-11.01 10.067,-2.076 16.154,-1.042 21.365,5.472 2.809,3.511 4.99,6.312 6.036,9.249 0.893,2.511 0.688,5.18 2.306,7.86 3.512,5.817 5.074,2.952 5.205,12.591 0.13,9.64 -0.496,11.774 1.129,16.11 0.782,2.084 -6.948,17.802 -6.948,17.802 0,0 -5.122,4.127 -24.923,4.127 z"
         id="path1140" />
      <g
         id="g1142">
        <path
           inkscape:connector-curvature="0"
           d="m 772.977,365.368 c -0.104,-0.496 -0.131,-1.004 -0.131,-1.519 0,-0.501 0.024,-1.013 0.024,-1.527 0,-0.108 0,-0.217 -0.002,-0.324 0,-0.023 10e-4,-0.045 10e-4,-0.066 -0.019,-0.57 -0.399,-0.949 -0.38,-1.313 0,-0.024 0,-0.05 0.004,-0.072 l 0.002,-0.012 v -0.014 c 10e-4,-0.815 0.003,-1.631 0.003,-2.447 0,-0.677 -0.001,-1.354 -0.003,-2.028 -0.002,-0.079 -0.004,-0.153 -0.004,-0.227 0,-0.807 0.123,-1.613 0.289,-2.413 0.035,-0.134 0.049,-0.265 0.049,-0.393 -0.007,-0.616 -0.314,-1.143 -0.324,-1.629 -0.012,-0.284 -0.016,-0.57 -0.016,-0.856 0,-0.257 0.002,-0.515 0.002,-0.772 0,-0.707 -0.016,-1.422 -0.141,-2.137 -0.029,-0.629 -0.038,-1.26 -0.038,-1.894 0,-0.748 0.011,-1.497 0.011,-2.248 0,-0.28 -10e-4,-0.562 -0.005,-0.842 -0.024,-0.699 -0.347,-1.282 -0.365,-1.861 0,-0.002 0,-0.002 0,-0.002 -0.009,-0.698 -0.44,-1.201 -0.558,-1.723 -0.195,-0.781 -0.793,-1.3 -1.253,-1.811 -0.003,-0.104 -0.003,-0.208 -0.003,-0.313 0,-0.095 0,-0.188 0,-0.28 0,-0.298 -0.002,-0.599 -0.027,-0.901 l -0.004,-0.037 -0.018,-0.033 c -0.328,-0.622 -0.926,-0.959 -1.232,-1.434 -0.167,-0.316 -0.133,-0.846 -0.55,-1.227 -0.736,-0.65 -1.107,-1.642 -1.738,-2.502 -0.175,-0.228 -0.226,-0.511 -0.264,-0.839 -0.04,-0.32 -0.067,-0.679 -0.257,-1.015 -0.235,-0.557 -0.62,-0.987 -0.654,-1.479 l -0.002,-0.009 -10e-4,-0.007 c -0.126,-0.72 -0.165,-1.454 -0.212,-2.193 l -0.002,-0.025 -0.008,-0.024 c -0.209,-0.597 -0.677,-1.013 -1.043,-1.419 -0.021,-0.29 -0.023,-0.6 -0.095,-0.918 l -0.005,-0.023 -0.012,-0.021 c -0.269,-0.514 -0.674,-0.915 -1.082,-1.275 -0.676,-0.58 -1.17,-1.378 -1.869,-2.034 -0.467,-0.423 -0.793,-1.001 -1.238,-1.526 -0.35,-0.404 -0.484,-1.012 -0.896,-1.52 -0.293,-0.345 -0.611,-0.644 -0.905,-0.952 0.038,-0.173 0.112,-0.38 0.115,-0.615 0,-0.082 -0.011,-0.165 -0.036,-0.251 l -0.01,-0.031 -0.02,-0.026 c -0.542,-0.719 -1.281,-1.212 -1.983,-1.685 -1.126,-0.841 -2.249,-1.689 -3.277,-2.642 -0.335,-0.338 -0.767,-0.401 -1.151,-0.438 -0.391,-0.037 -0.752,-0.059 -1.022,-0.226 -0.353,-0.189 -0.71,-0.188 -1.033,-0.187 -0.185,0 -0.36,0 -0.515,-0.035 -0.448,-0.099 -0.921,-0.336 -1.48,-0.34 -0.023,0 -0.048,0 -0.074,0.001 -0.113,-0.006 -0.229,-0.009 -0.341,-0.009 -0.402,0 -0.8,0.03 -1.185,0.03 -0.43,0 -0.84,-0.038 -1.227,-0.188 l -0.033,-0.014 h -2.133 l -0.057,0.07 c -0.24,0.304 -0.404,0.647 -0.512,1.007 -1.782,0.41 -3.553,0.846 -5.343,1.141 -0.007,0 -0.017,0 -0.024,0 -1.039,0 -1.988,0.37 -2.91,0.672 l -0.012,0.003 -0.01,0.006 c -0.711,0.346 -1.217,0.957 -1.879,0.989 -0.803,0.02 -1.512,0.343 -2.225,0.424 -0.457,0.05 -0.758,0.347 -1.055,0.47 -0.34,0.083 -0.719,0.067 -1.114,0.093 l -0.086,0.006 -0.052,0.069 c -0.096,0.13 -0.189,0.261 -0.285,0.391 -0.615,0.077 -1.049,0.512 -1.348,0.968 -0.305,0.489 -0.863,0.808 -1.287,1.337 -0.512,0.593 -0.92,1.279 -1.633,1.362 l -0.118,0.014 -0.036,0.115 c -0.188,0.61 -0.27,1.229 -0.646,1.642 l -0.01,0.012 -0.01,0.014 c -0.102,0.166 -0.28,0.269 -0.5,0.385 -0.217,0.116 -0.472,0.246 -0.64,0.518 -0.468,0.69 -1.196,1.218 -1.745,1.96 -0.593,0.826 -1.5,1.432 -2.129,2.346 -0.299,0.451 -0.732,0.816 -1.129,1.251 l -0.006,0.007 -0.006,0.009 c -0.471,0.633 -0.793,1.333 -1.23,1.931 -0.355,0.543 -0.887,1.003 -1.201,1.663 -0.106,0.219 -0.234,0.429 -0.381,0.625 -0.002,-0.087 -0.003,-0.172 -0.003,-0.261 0,-0.329 0.011,-0.664 0.011,-1.002 0,-0.537 -0.026,-1.082 -0.166,-1.624 l -0.023,-0.088 -0.08,-0.037 c -0.076,-0.033 -0.154,-0.052 -0.23,-0.052 -0.26,0.003 -0.411,0.201 -0.482,0.374 -0.076,0.179 -0.104,0.375 -0.111,0.524 -0.019,0.407 -0.023,0.817 -0.023,1.224 0,0.559 0.01,1.113 0.01,1.664 0,0.219 -0.002,0.436 -0.006,0.652 0,0.016 0,0.023 0,0.031 0.01,0.41 -0.357,0.78 -0.598,1.266 -0.269,0.558 -0.654,1.072 -0.978,1.645 l -0.019,0.032 -0.004,0.037 c -0.043,0.355 -0.057,0.709 -0.057,1.063 0,0.391 0.018,0.778 0.029,1.162 0,0.013 0,0.027 0,0.04 0.01,0.364 0.273,0.56 0.388,0.724 l 0.133,0.174 0.151,-0.159 c 0.093,-0.1 0.279,-0.298 0.371,-0.396 l 0.053,-0.056 -0.002,-0.076 c -0.006,-0.307 -0.01,-0.612 -0.01,-0.918 0,-0.253 0.002,-0.507 0.008,-0.76 0.1,0.148 0.217,0.289 0.361,0.413 0.016,0.09 0.021,0.177 0.021,0.263 0.008,0.783 -0.579,1.494 -0.926,2.324 -0.211,0.445 -0.182,0.92 -0.248,1.318 -0.051,0.318 -0.248,0.619 -0.452,0.945 -0.202,0.324 -0.413,0.683 -0.413,1.135 0,0.018 0,0.038 10e-4,0.062 0.007,2.04 0.005,4.092 0.011,6.146 0,0.031 0,0.059 0,0.088 0.002,0.514 -0.117,1.037 -0.172,1.59 0,-0.343 0,-0.686 0,-1.026 0,-3.219 -0.006,-6.438 -0.006,-9.656 0,-0.974 0,-1.946 0.002,-2.918 0.002,-0.04 0.004,-0.088 0.004,-0.136 0,-0.368 -0.084,-0.767 -0.389,-1.067 l -0.141,-0.14 -0.129,0.148 c -0.084,0.094 -0.26,0.284 -0.348,0.383 l -0.033,0.037 -0.011,0.049 c -0.053,0.258 -0.063,0.515 -0.063,0.763 0,0.222 0.008,0.44 0.008,0.649 0,0.38 -0.029,0.735 -0.174,1.063 l -0.016,0.036 v 0.297 l 0.016,0.035 c 0.15,0.34 0.183,0.715 0.183,1.11 0,0.243 -0.013,0.493 -0.013,0.746 0,0.043 0,0.085 0.002,0.128 -0.002,1.293 -0.002,2.591 -0.002,3.888 0,1.707 0,3.413 0,5.12 0,1.836 0,3.676 -0.004,5.514 0.012,0.655 0.176,1.265 0.195,1.854 -10e-4,0.018 -0.002,0.035 -10e-4,0.054 0.011,0.473 0.296,0.789 0.354,1.091 0.016,0.171 0.02,0.343 0.02,0.519 0,0.254 -0.01,0.512 -0.01,0.775 0,0.182 0.005,0.364 0.021,0.549 0.071,0.639 0.336,1.194 0.475,1.746 0.336,1.871 0.802,3.821 1.961,5.417 0.498,0.976 1.027,1.927 1.181,2.977 l 0.015,0.101 0.094,0.041 c 0.316,0.135 0.615,0.211 0.762,0.402 0.037,0.234 0.047,0.474 0.047,0.719 0,0.25 -0.011,0.501 -0.012,0.759 10e-4,0.272 0.012,0.547 0.058,0.826 0.112,0.605 0.098,1.271 0.328,1.92 0.257,0.719 0.241,1.569 0.636,2.355 0.18,0.352 0.22,0.802 0.414,1.244 l 0.006,0.014 0.011,0.015 c 0.371,0.544 0.747,1.081 1.055,1.651 l 0.052,0.098 h 0.97 l -0.024,-0.209 c -0.033,-0.268 -0.042,-0.56 -0.121,-0.859 l -0.008,-0.024 -0.012,-0.023 c -0.359,-0.583 -0.896,-0.982 -1.018,-1.531 -0.182,-0.715 -0.551,-1.317 -0.627,-1.961 -0.08,-0.633 -0.3,-1.207 -0.443,-1.778 -0.076,-0.712 -0.223,-1.403 -0.223,-2.079 0,-0.037 0.001,-0.073 0.002,-0.11 0.34,0.354 0.716,0.667 1.115,0.945 0.559,0.736 0.838,1.684 1.315,2.553 l 0.006,0.012 0.009,0.012 c 0.449,0.587 1.112,0.882 1.682,1.196 0.426,0.223 0.783,0.709 1.4,0.874 0.563,0.176 1.112,0.442 1.672,0.709 0.438,0.176 0.77,0.649 1.344,0.875 0.725,0.287 1.418,0.671 1.816,1.313 l 0.055,0.088 h 0.488 l 0.027,-0.153 c 0.057,-0.31 0.111,-0.617 0.164,-0.924 l 0.02,-0.107 -0.084,-0.068 c -0.296,-0.242 -0.594,-0.512 -0.959,-0.713 -0.461,-0.268 -0.963,-0.319 -1.365,-0.498 -0.307,-0.224 -0.582,-0.592 -1.043,-0.768 -0.577,-0.241 -1.15,-0.546 -1.781,-0.756 -0.547,-0.172 -0.982,-0.648 -1.582,-0.956 -0.412,-0.232 -0.838,-0.383 -0.941,-0.736 l -0.002,-0.017 -0.002,-0.007 c -0.413,-1.011 -0.997,-1.913 -1.499,-2.839 l -0.029,-0.054 -0.053,-0.026 c -0.338,-0.144 -0.646,-0.184 -0.708,-0.369 l -0.007,-0.017 -0.01,-0.015 c -0.07,-0.096 -0.135,-0.291 -0.229,-0.479 -0.088,-0.181 -0.263,-0.399 -0.557,-0.397 -0.049,0 -0.102,0.006 -0.156,0.018 l -0.014,0.004 c -0.006,-0.045 -0.014,-0.089 -0.022,-0.134 -0.12,-0.66 0.03,-1.425 -0.255,-2.179 -0.211,-0.591 -0.158,-1.303 -0.438,-1.995 -0.24,-0.623 -0.424,-1.281 -0.664,-1.934 -0.223,-0.531 -0.152,-1.189 -0.399,-1.836 -0.224,-0.637 -0.616,-1.161 -0.817,-1.73 -0.135,-0.695 -0.223,-1.398 -0.238,-2.102 0.002,-0.031 0.002,-0.063 0.002,-0.093 -0.006,-0.734 -0.361,-1.343 -0.4,-1.95 -0.016,-0.374 -0.217,-0.65 -0.408,-0.883 -0.187,-0.227 -0.365,-0.425 -0.439,-0.637 -0.016,-0.358 -0.021,-0.72 -0.021,-1.081 0,-0.632 0.016,-1.267 0.016,-1.904 0,-0.303 -0.004,-0.604 -0.014,-0.907 -0.006,-0.086 -0.01,-0.165 -0.01,-0.245 -0.002,-0.667 0.193,-1.357 0.196,-2.095 0,-0.024 -10e-4,-0.049 -10e-4,-0.068 -0.006,-1.985 0.002,-3.972 -0.01,-5.96 -0.002,-0.027 -0.002,-0.046 -0.002,-0.064 -0.023,-0.688 0.719,-1.254 0.87,-2.144 0.054,-0.351 0.044,-0.684 0.118,-0.972 0.232,-0.662 0.696,-1.265 0.957,-2.005 l 0.006,-0.016 0.002,-0.017 c 0.051,-0.326 0.062,-0.65 0.062,-0.971 0,-0.306 -0.011,-0.61 -0.011,-0.908 0,-0.332 0.013,-0.658 0.066,-0.976 0.107,-0.6 0.108,-1.196 0.133,-1.779 v -0.006 -0.011 c 0,-0.007 0,-0.012 0,-0.013 -0.012,-0.161 0.16,-0.33 0.33,-0.569 0.372,-0.474 0.66,-0.985 0.982,-1.453 0.146,-0.23 0.385,-0.359 0.672,-0.496 0.282,-0.138 0.607,-0.276 0.844,-0.578 0.41,-0.503 0.671,-1.076 1.068,-1.503 0.234,-0.26 0.52,-0.514 0.723,-0.864 0.646,-1.077 1.449,-2.063 2.379,-2.918 1.084,-1.027 1.883,-2.286 3.088,-3.047 l 0.092,-0.058 -0.006,-0.109 c -0.016,-0.248 -0.031,-0.495 -0.047,-0.744 0.462,-0.46 0.951,-0.906 1.402,-1.402 0.529,-0.6 0.838,-1.31 1.258,-1.902 0.482,-0.358 1.08,-0.582 1.648,-0.905 0.408,-0.259 0.656,-0.637 0.906,-0.957 0.268,-0.004 0.537,-0.008 0.805,-0.009 h 0.076 l 0.055,-0.055 c 0.107,-0.107 0.216,-0.215 0.325,-0.322 0.384,0.002 0.772,0.013 1.163,0.013 0.206,0 0.412,-0.003 0.618,-0.011 0.587,-0.049 1.021,-0.378 1.453,-0.368 0.009,0 0.009,0 0.009,0 l 0.006,10e-4 h 0.008 c 0.303,-0.003 0.605,-0.004 0.908,-0.004 0.79,0 1.58,0.006 2.373,0.006 0.398,0 0.797,-0.002 1.197,-0.006 0.01,0 0.021,0 0.033,0 0.134,0 0.266,-0.002 0.398,-0.002 0.371,0 0.721,0.02 1.034,0.147 0.53,0.199 1.071,0.383 1.647,0.465 l 0.209,0.03 0.003,-0.213 c 10e-4,-0.239 0.005,-0.479 0.007,-0.718 v -0.135 l -0.129,-0.042 c -0.691,-0.225 -1.402,-0.6 -2.223,-0.603 -0.016,0 -0.032,0 -0.053,0 -0.215,-10e-4 -0.438,-0.003 -0.66,-0.003 -0.813,0 -1.623,0.011 -2.432,0.011 -0.502,0 -1.002,-0.005 -1.5,-0.017 0.617,-0.422 1.406,-0.586 2.18,-0.838 0.576,-0.181 1.249,-0.091 1.938,-0.249 2.031,-0.46 4.118,-0.796 6.117,-1.509 0.708,0.111 1.42,0.148 2.131,0.148 0.268,0 0.533,-0.006 0.801,-0.014 0.057,-0.005 0.104,-0.007 0.146,-0.007 0.609,-0.009 1.228,0.374 1.977,0.384 0.033,0 0.064,-10e-4 0.096,-0.002 0.412,0.01 0.79,-0.027 1.066,0.143 0.49,0.289 1.017,0.209 1.432,0.298 0.322,0.113 0.584,0.402 0.885,0.686 0.898,0.909 2.024,1.488 2.973,2.249 l 0.014,0.012 0.018,0.008 c 0.494,0.236 0.717,0.862 1.277,1.292 0.76,0.597 1.369,1.368 1.953,2.169 -0.238,0.094 -0.477,0.188 -0.713,0.29 l -0.265,0.116 0.214,0.193 c 0.391,0.352 0.857,0.519 1.207,0.781 0.408,0.369 0.65,0.895 0.785,1.45 l 0.004,0.014 0.004,0.015 c 0.439,1.039 0.56,2.21 0.961,3.335 l -0.051,-0.002 0.178,0.293 c 0.763,1.259 1.23,2.749 2.275,3.929 l 0.006,0.007 0.006,0.005 c 0.889,0.838 1.473,1.953 2.092,3.043 l 0.004,0.008 0.004,0.004 c 0.707,1.047 0.913,2.359 1.349,3.604 0.188,0.556 0.498,1.03 0.688,1.528 0.072,0.349 0.045,0.742 0.109,1.155 l 0.006,0.03 0.014,0.025 c 0.134,0.253 0.311,0.457 0.466,0.655 0.009,0.368 -0.009,0.759 0.073,1.157 l 0.002,0.008 10e-4,0.006 c 0.26,0.888 0.938,1.5 1.063,2.271 0.138,0.628 0.459,1.143 0.532,1.681 0.096,0.535 0.354,0.96 0.349,1.386 0,0.019 -10e-4,0.039 -10e-4,0.061 -0.003,0.035 -0.006,0.08 -0.006,0.124 0.004,0.62 0.334,1.122 0.593,1.581 l 0.041,0.072 c -0.083,0.192 -0.099,0.403 -0.097,0.589 0,0.153 0.009,0.302 0.009,0.435 0,0.062 -0.003,0.12 -0.007,0.174 -0.005,0.052 -0.008,0.104 -0.008,0.158 0.02,0.98 0.742,1.676 0.731,2.458 0.018,0.807 0.2,1.568 0.2,2.315 0,0.029 -0.002,0.062 -0.002,0.096 -0.006,1.064 -0.008,2.128 -0.008,3.192 0,0.85 0,1.701 0,2.55 0,0.821 0,1.642 -0.003,2.462 -10e-4,0.001 -10e-4,0.014 -10e-4,0.027 0.015,0.59 0.371,1.012 0.356,1.425 0,0.007 0,0.018 10e-4,0.032 0.01,0.592 0.014,1.19 0.014,1.789 0,0.366 -0.002,0.733 -0.002,1.101 0,0.436 10e-4,0.872 0.008,1.311 -0.316,0.258 -0.668,0.499 -0.98,0.808 l -0.039,0.039 -0.013,0.052 c -0.188,0.832 -0.507,1.659 -0.628,2.551 -0.174,0.129 -0.398,0.255 -0.572,0.479 l -0.019,0.024 -0.011,0.028 c -0.354,1.059 -0.506,2.154 -0.93,3.13 -0.299,0.685 -0.354,1.404 -0.604,2.021 -0.178,0.528 -0.58,0.959 -0.943,1.443 l -0.076,0.109 0.073,0.109 c 0.101,0.149 0.203,0.298 0.307,0.446 -0.247,0.543 -0.491,1.082 -0.767,1.601 l -0.146,0.274 h 1.365 l 0.051,-0.108 c 0.314,-0.678 0.547,-1.373 0.866,-2.01 0.874,-1.832 1.298,-3.823 2.286,-5.522 0.168,-0.301 0.164,-0.622 0.196,-0.89 0.031,-0.271 0.079,-0.464 0.263,-0.603 0.482,-0.431 0.625,-1.011 0.908,-1.421 0.379,-0.526 0.404,-1.165 0.452,-1.72 0.021,-0.483 0.178,-0.992 0.18,-1.536 0,-0.166 -0.016,-0.337 -0.057,-0.509 z m -4.716,-29.965 c -0.01,-0.018 -0.021,-0.037 -0.031,-0.056 0.245,0.267 0.528,0.493 0.787,0.708 0.012,0.391 0.017,0.78 0.016,1.172 10e-4,0.131 0,0.264 0,0.397 l -0.037,-0.041 c -0.174,-0.193 -0.348,-0.384 -0.52,-0.576 0.002,-0.214 0.027,-0.448 0.027,-0.691 0,-0.3 -0.041,-0.624 -0.242,-0.913 z m 0.783,2.397 0.049,0.045 c 0.475,0.428 0.869,0.948 1.172,1.515 0.028,0.547 0.352,0.938 0.553,1.317 0.028,0.261 0.02,0.542 0.047,0.839 0.09,0.547 0.355,0.984 0.348,1.415 0,0.022 0,0.046 -0.002,0.072 -10e-4,0.095 -0.002,0.184 -0.002,0.274 0,0.478 0.016,0.954 0.014,1.426 0.001,0.188 -0.002,0.375 -0.008,0.563 -0.063,-0.129 -0.116,-0.258 -0.154,-0.389 -0.023,-0.395 -0.012,-0.796 -0.027,-1.207 l -0.004,-0.103 -0.088,-0.052 c -0.158,-0.097 -0.209,-0.213 -0.242,-0.398 -0.033,-0.184 -0.021,-0.414 -0.061,-0.65 l -0.002,-0.018 -0.007,-0.018 c -0.13,-0.341 -0.31,-0.631 -0.426,-0.925 -0.108,-0.266 -0.028,-0.68 -0.273,-1.077 -0.284,-0.451 -0.629,-0.824 -0.751,-1.274 l -0.004,-0.015 -0.006,-0.012 c -0.111,-0.249 -0.137,-0.524 -0.137,-0.82 0,-0.164 0.008,-0.335 0.011,-0.508 z m -7.765,-15.296 c 0,-0.301 0.008,-0.598 0.04,-0.889 0.008,-0.002 0.015,-0.006 0.022,-0.009 0.007,0.472 0.023,0.963 0.178,1.447 l 0.035,0.109 0.114,0.017 c 0.618,0.079 0.916,0.737 1.45,1.251 0.09,0.288 0.18,0.577 0.271,0.862 l 0.027,0.088 0.085,0.031 c 0.2,0.074 0.399,0.15 0.597,0.228 0.017,0.688 0.168,1.342 0.203,1.98 -0.359,-0.372 -0.618,-0.858 -0.914,-1.335 -0.479,-0.7 -0.719,-1.561 -1.205,-2.335 l -0.053,-0.084 -0.1,-0.003 c -0.255,-0.006 -0.51,-0.012 -0.763,-0.021 0.012,-0.208 0.015,-0.415 0.015,-0.62 0.002,-0.24 -0.002,-0.479 -0.002,-0.717 z m -51.742,32.44 c 10e-4,-0.078 10e-4,-0.158 0.002,-0.236 0.021,0.133 0.07,0.272 0.186,0.395 0.276,0.347 0.644,0.676 0.625,0.945 0,0.074 -0.019,0.149 -0.074,0.245 l -0.053,0.087 0.046,0.09 c 0.239,0.477 0.534,0.902 0.529,1.351 0,0.019 -10e-4,0.04 -10e-4,0.063 0,0.011 0,0.017 0,0.022 0,0.832 0.16,1.633 0.252,2.42 l 0.002,0.02 0.006,0.019 c 0.241,0.726 0.672,1.329 0.891,1.985 0.174,0.445 0.082,1.009 0.297,1.578 0.268,0.7 0.473,1.434 0.748,2.157 0.191,0.44 0.152,0.978 0.283,1.526 -0.301,-0.641 -0.576,-1.328 -1.004,-1.95 -0.478,-0.658 -0.795,-1.479 -1.453,-2.105 0.002,-0.182 0.004,-0.366 0.004,-0.55 0,-1.047 -0.055,-2.14 -0.549,-3.129 -0.161,-0.333 -0.203,-0.693 -0.203,-1.082 0,-0.337 0.031,-0.691 0.031,-1.051 0,-0.292 -0.021,-0.587 -0.102,-0.88 l -0.004,-0.017 -0.008,-0.017 c -0.275,-0.559 -0.453,-1.159 -0.453,-1.77 0,-0.04 0.002,-0.079 0.002,-0.116 z"
           id="path1144" />
        <path
           inkscape:connector-curvature="0"
           d="m 764.618,333.739 -0.001,-0.047 -0.027,-0.043 c -0.34,-0.558 -0.857,-0.933 -1.258,-1.349 0,-0.119 0,-0.235 0,-0.353 0,-0.393 -0.002,-0.784 -0.004,-1.174 l -10e-4,-0.087 -0.065,-0.056 c -0.434,-0.361 -0.754,-0.825 -0.967,-1.353 -0.142,-0.396 -0.46,-0.653 -0.795,-0.824 -0.275,-0.642 -0.508,-1.331 -0.915,-1.952 l -0.005,-0.007 -0.004,-0.007 c -0.414,-0.515 -1.041,-0.633 -1.528,-0.818 -0.33,-0.573 -0.495,-1.311 -0.993,-1.907 -0.277,-0.301 -0.611,-0.465 -0.856,-0.674 -0.251,-0.29 -0.372,-0.741 -0.715,-1.112 -0.47,-0.553 -1.169,-0.573 -1.542,-0.925 -0.453,-0.359 -1.012,-0.47 -1.535,-0.47 -0.036,0 -0.072,0 -0.107,0.002 -0.193,0.002 -0.391,0.004 -0.59,0.004 -0.413,0 -0.829,-0.005 -1.246,-0.005 -0.199,0 -0.398,0.001 -0.598,0.005 l -0.035,0.001 -0.033,0.013 c -0.427,0.178 -0.803,0.415 -1.193,0.562 l -0.113,0.044 -0.006,0.121 c -0.014,0.258 -0.025,0.518 -0.035,0.774 l -0.002,0.084 0.059,0.056 c 0.078,0.078 0.232,0.224 0.313,0.298 l 0.121,0.113 c -0.245,0.274 -0.494,0.538 -0.769,0.771 -0.278,0.24 -0.656,0.435 -0.938,0.791 -0.318,0.396 -0.529,0.828 -0.894,1.037 -0.519,0.318 -1.179,0.644 -1.458,1.34 -0.221,0.653 -1.029,1.096 -1.186,2.005 -0.035,0.111 -0.137,0.231 -0.256,0.375 -0.117,0.146 -0.258,0.334 -0.258,0.599 0,0.012 0,0.023 0.002,0.038 -0.022,0.422 -0.313,0.81 -0.498,1.298 l -0.006,0.016 -0.002,0.022 c -0.07,0.494 -0.047,0.981 -0.057,1.448 0,0.021 0,0.037 0,0.055 0,0.201 -0.011,0.414 -0.011,0.632 10e-4,0.401 0.036,0.826 0.27,1.219 l 0.03,0.051 0.055,0.024 c 0.25,0.11 0.494,0.209 0.705,0.341 0.189,0.279 0.212,0.735 0.545,1.112 0.247,0.289 0.514,0.564 0.775,0.841 0.027,0.227 0.049,0.47 0.127,0.717 l 0.008,0.025 0.014,0.021 c 0.41,0.608 1.004,0.981 1.27,1.544 l 0.029,0.063 0.063,0.027 c 0.659,0.287 1.291,0.619 1.836,1.064 0.764,0.64 1.746,0.656 2.401,1.154 l 0.052,0.037 0.064,-10e-4 c 0.016,-0.001 0.033,-0.001 0.049,-0.001 0.877,-0.012 1.707,0.598 2.738,0.609 0.055,0 0.109,-0.002 0.164,-0.006 0.761,-0.005 1.533,-0.008 2.305,-0.008 0.84,0 1.68,0.004 2.521,0.009 0.036,0.003 0.072,0.005 0.109,0.005 0.561,-0.01 0.938,-0.404 1.296,-0.574 0.968,-0.455 1.771,-1.168 2.517,-1.887 l 0.022,-0.022 0.015,-0.029 c 0.279,-0.567 0.532,-1.118 0.982,-1.505 l 0.064,-0.057 v -0.087 c -0.004,-0.241 -0.005,-0.485 -0.005,-0.728 0,-0.6 0.007,-1.2 0.007,-1.803 -10e-4,-0.497 -0.006,-0.996 -0.021,-1.496 z m -14.146,-11.532 c -0.006,0.001 -0.012,0.002 -0.018,0.005 0.004,-0.004 0.008,-0.006 0.01,-0.009 0.002,0.001 0.006,0.002 0.008,0.004 z m 13.067,15.005 c -0.041,-0.027 -0.078,-0.052 -0.107,-0.072 l -0.237,0.285 c 0.044,0.044 0.11,0.113 0.175,0.18 -0.158,0.149 -0.338,0.309 -0.473,0.532 l -0.002,0.007 -0.004,0.006 c -0.19,0.411 -0.264,0.815 -0.547,0.981 -0.51,0.361 -0.921,0.783 -1.42,1.013 -0.417,0.196 -0.785,0.458 -1.129,0.739 -0.645,-0.013 -1.29,-0.017 -1.934,-0.017 -0.963,0 -1.923,0.008 -2.881,0.008 h -0.008 l -0.006,10e-4 c -0.039,0.002 -0.078,0.004 -0.117,0.004 -0.785,0.014 -1.542,-0.58 -2.496,-0.592 -0.063,0 -0.126,0.002 -0.189,0.009 -0.395,-0.395 -0.914,-0.548 -1.432,-0.546 -0.074,0 -0.15,0.003 -0.226,0.008 -0.505,-0.572 -1.124,-1.023 -1.808,-1.349 l -0.008,-0.006 -0.007,-0.003 c -0.56,-0.196 -0.841,-0.835 -1.402,-1.301 l -0.009,-0.007 -0.009,-0.007 c -0.173,-0.109 -0.206,-0.265 -0.21,-0.513 0,-0.114 0.01,-0.235 0.014,-0.359 l 0.002,-0.085 -0.061,-0.057 c -0.324,-0.308 -0.65,-0.599 -0.914,-0.928 -0.182,-0.285 -0.211,-0.745 -0.559,-1.106 -0.246,-0.291 -0.561,-0.473 -0.848,-0.643 10e-4,-0.07 0.002,-0.14 0.002,-0.21 0,-0.312 -0.01,-0.62 -0.01,-0.924 0,-0.299 0.008,-0.594 0.041,-0.885 0.174,-0.45 0.523,-0.91 0.529,-1.525 0,-0.018 0,-0.029 0,-0.036 v -0.009 -0.005 c -0.002,-0.008 -0.002,-0.014 -0.002,-0.016 -0.018,-0.183 0.234,-0.348 0.473,-0.612 l 0.041,-0.05 0.002,-0.063 c 0.003,-0.1 0.012,-0.29 0.018,-0.416 0.396,-0.539 0.906,-1.049 1.191,-1.735 0.07,-0.256 0.441,-0.317 0.809,-0.555 0.696,-0.518 1.029,-1.302 1.645,-1.688 l 0.011,-0.008 0.011,-0.009 c 0.503,-0.442 0.905,-0.956 1.413,-1.302 0.369,-0.139 0.786,-0.276 1.116,-0.599 0.314,-0.013 0.63,-0.019 0.945,-0.019 h 0.109 l 0.053,-0.097 c 0.096,-0.173 0.173,-0.354 0.231,-0.542 l 0.032,-0.105 -0.077,-0.08 c -0.167,-0.172 -0.371,-0.243 -0.567,-0.27 0.138,-0.001 0.277,-0.002 0.416,-0.002 0.034,0 0.063,-0.001 0.092,-0.001 0.529,0 1.068,0.155 1.449,0.498 0.203,0.185 0.443,0.267 0.644,0.353 0.202,0.09 0.355,0.176 0.447,0.327 0.249,0.394 0.421,0.896 0.824,1.287 l 0.013,0.011 0.012,0.008 c 0.229,0.154 0.459,0.262 0.656,0.394 0.34,0.552 0.496,1.249 0.904,1.858 l 0.02,0.028 0.027,0.02 c 0.485,0.337 1.029,0.476 1.441,0.758 0.422,0.65 0.609,1.46 1.022,2.206 l 0.038,0.068 0.076,0.02 c 0.086,0.024 0.242,0.066 0.356,0.098 0.202,0.431 0.401,0.91 0.802,1.276 l 0.008,0.007 0.008,0.005 c 0.243,0.181 0.289,0.4 0.293,0.718 0,0.205 -0.027,0.436 -0.027,0.674 0,0.273 0.037,0.57 0.227,0.83 l 0.004,0.007 0.006,0.006 c 0.398,0.431 0.947,0.651 1.063,1.055 0.018,0.407 0.022,0.816 0.022,1.226 0,0.558 -0.01,1.116 -0.01,1.678 0.002,0.055 0.003,0.112 0.003,0.165 z m -11.623,-15.554 10e-4,-0.017 c 0.095,0 0.188,0 0.28,0 -0.099,0.007 -0.194,0.016 -0.281,0.017 z m -0.405,-0.015 c -0.133,0.101 -0.255,0.199 -0.379,0.282 -0.1,-0.026 -0.197,-0.054 -0.295,-0.084 0.067,-0.069 0.138,-0.141 0.193,-0.198 0.071,0 0.143,0 0.215,0 0.089,0 0.178,0 0.266,0 z"
           id="path1146" />
        <path
           inkscape:connector-curvature="0"
           d="m 761.835,332.956 -0.004,-0.017 c -0.306,-1.145 -0.783,-2.268 -1.572,-3.191 l 0,0 c -1.135,-1.325 -2.869,-2.052 -4.598,-2.053 -0.088,0 -0.176,0.001 -0.263,0.006 -0.032,-0.001 -0.063,-0.001 -0.095,-0.001 -1.479,0 -2.912,0.589 -4.018,1.551 -1.055,0.989 -1.697,2.324 -2.039,3.691 l -0.002,0.011 -0.002,0.01 c -0.051,0.41 -0.082,0.826 -0.082,1.244 0,0.443 0.035,0.89 0.119,1.331 l 0.002,0.01 0.004,0.01 c 0.272,0.895 0.588,1.825 1.201,2.599 0.73,1.103 1.896,1.864 3.145,2.229 0.472,0.187 0.957,0.226 1.432,0.226 0.371,0 0.735,-0.023 1.088,-0.023 0.105,0 0.21,0.002 0.313,0.008 h 0.018 l 0.015,-0.002 c 1.271,-0.148 2.442,-0.754 3.393,-1.582 1.013,-1.045 1.675,-2.381 1.964,-3.781 l 0.004,-0.016 v -0.018 c 0.006,-0.392 0.018,-0.788 0.018,-1.186 0,-0.345 -0.008,-0.691 -0.037,-1.038 l -0.004,-0.018 z m -7.755,-3.893 c 0.23,0.235 0.467,0.468 0.706,0.697 0.005,0.187 0.007,0.376 0.007,0.564 0,0.209 -0.002,0.418 -0.007,0.627 -0.239,0.229 -0.474,0.463 -0.7,0.7 -0.23,0.005 -0.46,0.009 -0.69,0.009 -0.229,0 -0.459,-0.004 -0.688,-0.009 -0.229,-0.239 -0.461,-0.472 -0.7,-0.701 -0.005,-0.207 -0.009,-0.414 -0.009,-0.622 0,-0.189 0.003,-0.38 0.007,-0.568 0.241,-0.229 0.477,-0.462 0.708,-0.697 0.229,-0.043 0.458,-0.063 0.688,-0.064 0.224,10e-4 0.451,0.021 0.678,0.064 z m -1.877,5.222 c 0.002,0.028 0.004,0.056 0.004,0.086 0.004,0.352 -0.25,0.688 -0.523,1.011 -0.104,0 -0.209,10e-4 -0.313,10e-4 -0.301,0 -0.6,-0.003 -0.898,-0.009 -0.168,-0.173 -0.34,-0.345 -0.514,-0.513 -0.006,-0.212 -0.008,-0.423 -0.008,-0.634 0,-0.188 10e-4,-0.378 0.006,-0.564 0.181,-0.174 0.352,-0.346 0.535,-0.493 0.146,-0.064 0.299,-0.088 0.467,-0.089 0.225,0 0.469,0.046 0.723,0.077 0.282,0.31 0.529,0.647 0.525,1 0,0.028 -0.002,0.058 -0.005,0.091 l -0.003,0.018 0.004,0.018 z"
           id="path1148" />
        <path
           inkscape:connector-curvature="0"
           d="m 733.712,342.074 c 0.379,-0.272 0.494,-0.695 0.631,-1.018 l 0.002,-0.005 0.002,-0.008 c 0.086,-0.285 0.387,-0.535 0.523,-0.953 0.129,-0.501 0.596,-0.973 0.607,-1.664 0,-0.035 -0.002,-0.069 -0.004,-0.104 0,-0.006 -0.002,-0.01 -0.002,-0.016 0,-0.098 0.055,-0.203 0.143,-0.342 0.082,-0.136 0.195,-0.302 0.204,-0.532 0.017,-0.36 0.022,-0.722 0.023,-1.084 -10e-4,-0.493 -0.013,-0.982 -0.03,-1.471 l -0.004,-0.097 -0.08,-0.052 c -0.236,-0.156 -0.455,-0.308 -0.607,-0.503 -0.389,-0.464 -0.963,-0.613 -1.453,-0.729 -0.384,-0.134 -0.633,-0.494 -0.91,-0.894 -0.275,-0.393 -0.592,-0.832 -1.168,-0.961 -0.701,-0.216 -1.396,-0.441 -2.072,-0.707 -0.279,-0.097 -0.563,-0.4 -1.021,-0.43 h -0.006 -0.007 c -0.003,0 -0.009,0 -0.016,0 -0.313,0.023 -0.624,-0.359 -1.163,-0.384 -0.023,0.002 -0.049,0.003 -0.075,0.005 -0.147,0.002 -0.294,0.002 -0.442,0.002 -0.519,0 -1.043,-0.013 -1.568,-0.013 -0.547,0 -1.098,0.014 -1.649,0.071 l -0.13,0.014 -0.031,0.13 c -0.045,0.188 -0.089,0.376 -0.133,0.563 -0.361,0.144 -0.785,0.133 -1.236,0.197 l -0.059,0.009 -0.043,0.04 c -0.297,0.282 -0.605,0.586 -0.83,0.966 -0.148,0.02 -0.297,0.038 -0.444,0.058 l -0.185,0.023 0.023,0.185 c 0.004,0.029 0.008,0.065 0.014,0.104 -0.038,-0.007 -0.076,-0.009 -0.111,-0.009 -0.361,0.005 -0.65,0.233 -0.852,0.476 -0.293,0.342 -0.703,0.592 -1.124,0.841 l -0.089,0.053 -0.002,0.103 c -0.008,0.293 -0.012,0.584 -0.02,0.877 -0.152,0.082 -0.303,0.164 -0.455,0.25 l -0.095,0.055 10e-4,0.108 c 0.002,0.251 0.004,0.501 0.004,0.752 0,0.347 -0.004,0.692 -0.014,1.038 -0.328,0.141 -0.518,0.424 -0.609,0.718 -0.105,0.333 -0.114,0.692 -0.119,0.989 v 0.007 0.006 c 0.006,0.088 0.008,0.179 0.008,0.27 0,0.206 -0.012,0.423 -0.012,0.643 0,0.379 0.03,0.774 0.214,1.151 l 0.028,0.059 0.059,0.029 c 0.219,0.103 0.432,0.212 0.646,0.324 -0.004,0.268 -0.033,0.559 -0.034,0.855 -0.001,0.413 0.063,0.855 0.376,1.225 0.035,0.933 -0.059,1.912 0.242,2.882 l 0.014,0.043 0.033,0.032 c 1.054,1.038 2.068,2.292 3.579,2.834 l 0.03,0.012 h 0.033 c 0.867,-0.008 1.734,-0.009 2.602,-0.009 0.667,0 1.334,0 2.002,0.002 0.033,0.005 0.067,0.006 0.1,0.006 0.441,-0.006 0.754,-0.294 1.005,-0.515 0.347,-0.32 0.745,-0.602 1.104,-0.957 l 0.014,-0.015 0.012,-0.016 c 0.568,-0.876 1.607,-1.39 2.318,-2.314 0.742,-1.143 1.297,-2.395 2.308,-3.205 z m -13.263,-7.91 c -0.03,-0.112 -0.061,-0.224 -0.088,-0.336 0.35,-0.284 0.742,-0.521 1.15,-0.739 0.436,-0.231 0.688,-0.616 0.973,-0.889 0.551,-0.176 1.146,-0.288 1.717,-0.549 l 0.088,-0.041 0.018,-0.097 c 0.014,-0.083 0.039,-0.222 0.061,-0.341 0.834,-0.002 1.668,-0.004 2.503,-0.012 h 0.01 0.009 c 0.027,-0.004 0.053,-0.004 0.078,-0.005 0.291,-0.004 0.6,0.186 0.978,0.307 0.271,0.081 0.524,0.165 0.737,0.304 0.586,0.355 1.222,0.51 1.711,0.854 0,0.041 -0.002,0.083 -0.002,0.126 0,0.256 0.026,0.52 0.105,0.779 l 0.363,-0.051 c 0,-0.007 0,-0.014 0,-0.019 -0.002,-0.202 -0.069,-0.443 -0.066,-0.604 -0.002,-0.07 0.014,-0.113 0.018,-0.117 l 0.003,-0.002 c 0.003,-0.002 0.015,-0.006 0.044,-0.006 10e-4,0 0.002,0 0.004,0 0.297,0.656 0.729,1.203 1.016,1.803 0,0.012 0,0.025 0,0.038 0,0.112 -0.011,0.24 -0.011,0.376 -0.001,0.207 0.026,0.45 0.196,0.658 0.24,0.359 0.434,0.75 0.594,1.156 l 0.05,0.125 0.136,-0.008 c 0.049,-0.003 0.1,-0.004 0.151,-0.004 0.175,0 0.367,0.014 0.563,0.014 0.383,0.002 0.822,-0.058 1.127,-0.448 l 0.095,-0.122 -0.101,-0.115 c -0.076,-0.088 -0.227,-0.256 -0.3,-0.342 l -0.05,-0.057 -0.076,-0.006 c -0.234,-0.02 -0.47,-0.036 -0.705,-0.051 -0.266,-0.427 -0.582,-0.795 -0.607,-1.193 0.387,0.083 0.771,0.176 1.159,0.268 0.028,0.172 0.055,0.346 0.085,0.518 l 0.021,0.126 0.125,0.025 c 0.152,0.032 0.305,0.062 0.459,0.092 -0.007,0.085 -0.01,0.165 -0.01,0.247 10e-4,0.231 0.018,0.459 0.018,0.673 -10e-4,0.392 -0.053,0.706 -0.317,0.962 l -0.054,0.051 -0.004,0.073 c -0.002,0.04 -0.004,0.08 -0.004,0.118 0,0.161 0.014,0.316 0.014,0.46 -0.002,0.236 -0.031,0.427 -0.152,0.58 -0.234,0.324 -0.394,0.687 -0.453,1.081 -0.209,0.234 -0.408,0.501 -0.513,0.834 -0.056,0.166 -0.144,0.318 -0.247,0.469 0.093,-0.315 0.156,-0.643 0.157,-0.984 0,-0.097 -0.006,-0.195 -0.017,-0.294 0.014,-0.13 0.021,-0.258 0.021,-0.385 -0.002,-1.187 -0.594,-2.271 -1.325,-3.136 -0.67,-0.695 -1.536,-1.063 -2.269,-1.534 l -0.018,-0.012 -0.02,-0.006 c -0.737,-0.268 -1.511,-0.375 -2.285,-0.375 -0.777,0 -1.557,0.109 -2.301,0.277 l -0.062,0.013 -0.04,0.048 c -0.07,0.082 -0.213,0.249 -0.283,0.33 l -0.262,0.302 0.399,0.005 c 0.224,0.004 0.446,0.009 0.671,0.011 0.277,0.316 0.527,0.651 0.523,1.002 0,0.028 -0.002,0.058 -0.005,0.088 l -0.003,0.02 0.003,0.02 c 0.003,0.031 0.005,0.062 0.006,0.091 0.005,0.352 -0.249,0.687 -0.525,1.009 -0.104,0 -0.208,0 -0.312,0 -0.301,0 -0.6,-0.002 -0.898,-0.008 -0.168,-0.174 -0.34,-0.345 -0.514,-0.513 -0.009,-0.467 -0.007,-0.936 -0.01,-1.407 l -0.004,-0.386 -0.301,0.243 c -1.058,0.857 -1.828,2.044 -2.154,3.373 l -0.115,0.479 0.403,-0.282 c 0.257,-0.179 0.511,-0.354 0.771,-0.521 0.575,0.085 1.05,0.585 1.046,1.162 0,0.024 0,0.052 -0.002,0.08 l -0.002,0.015 0.002,0.019 c 0.004,0.029 0.006,0.058 0.006,0.089 0.004,0.352 -0.25,0.686 -0.525,1.01 -0.129,10e-4 -0.256,0.003 -0.383,0.003 -0.123,0 -0.245,-0.002 -0.365,-0.01 -0.158,-0.058 -0.305,-0.238 -0.525,-0.4 l -0.461,-0.323 0.178,0.535 c 0.439,1.312 1.186,2.684 2.521,3.35 0.507,0.308 1.034,0.677 1.688,0.797 0.423,0.129 0.848,0.148 1.26,0.148 0.211,0 0.419,-0.006 0.623,-0.006 0.082,0 0.166,10e-4 0.246,0.004 0.061,0.002 0.121,0.002 0.18,0.002 0.795,0 1.635,-0.146 2.322,-0.63 0.232,-0.144 0.473,-0.286 0.713,-0.435 -0.43,0.848 -1.165,1.539 -2.002,2.008 -0.27,0.128 -0.406,0.371 -0.508,0.582 -0.092,0.191 -0.17,0.368 -0.275,0.484 -0.129,0.025 -0.32,0.064 -0.422,0.082 l -0.08,0.015 -0.043,0.067 c -0.178,0.277 -0.36,0.547 -0.558,0.808 -0.472,-0.009 -0.944,-0.012 -1.415,-0.012 -0.522,0 -1.045,0.003 -1.566,0.002 -0.527,10e-4 -1.055,-0.002 -1.582,-0.014 -0.19,-0.239 -0.44,-0.366 -0.662,-0.478 -0.251,-0.122 -0.471,-0.229 -0.613,-0.408 l -0.005,-0.006 -0.006,-0.006 c -0.482,-0.5 -0.981,-0.977 -1.455,-1.473 -0.177,-0.618 -0.216,-1.264 -0.216,-1.922 0,-0.295 0.007,-0.591 0.015,-0.889 l 10e-4,-0.069 -0.045,-0.054 c -0.11,-0.132 -0.221,-0.263 -0.334,-0.395 -0.002,-0.108 -0.002,-0.217 -0.002,-0.324 0,-0.277 0.006,-0.553 0.018,-0.827 0.168,-0.085 0.334,-0.172 0.502,-0.258 l 0.156,-0.08 -0.072,-0.162 c -0.113,-0.255 -0.227,-0.509 -0.338,-0.763 l -0.125,-0.284 -0.192,0.243 c -0.128,0.166 -0.381,0.31 -0.567,0.304 -0.105,-0.002 -0.186,-0.028 -0.262,-0.112 -0.04,-0.279 -0.074,-0.588 -0.074,-0.887 0.002,-0.642 0.15,-1.209 0.662,-1.505 l 0.088,-0.051 0.006,-0.101 c 0.008,-0.186 0.01,-0.369 0.01,-0.552 0,-0.118 -0.002,-0.238 -0.002,-0.355 0,-0.044 0.002,-0.087 0.002,-0.129 l 0.125,0.178 0.225,-0.003 0.095,-10e-4 0.192,-0.27 -0.024,-0.085 c -0.022,-0.078 -0.066,-0.221 -0.089,-0.293 l -0.042,-0.13 h -0.396 l -0.04,0.131 c -0.01,0.03 -0.023,0.073 -0.036,0.118 10e-4,-0.05 0.003,-0.102 0.007,-0.151 0.063,-0.253 0.197,-0.448 0.406,-0.512 l 0.128,-0.039 0.005,-0.133 c 0.006,-0.217 0.011,-0.433 0.016,-0.648 0.156,-0.096 0.311,-0.194 0.462,-0.294 0.118,0.015 0.237,0.029 0.356,0.043 l 0.273,0.032 -0.074,-0.263 z"
           id="path1150" />
        <path
           inkscape:connector-curvature="0"
           d="m 758.306,356.709 c 0,-0.705 0,-1.411 0,-2.115 0,-0.573 0,-1.147 -0.002,-1.72 0.002,-0.003 0.002,-0.016 0.002,-0.026 -0.021,-0.402 -0.307,-0.606 -0.322,-0.782 v -0.006 l -0.002,-0.005 c -0.313,-1.127 -0.879,-2.23 -1.83,-2.984 l -0.048,-0.038 -0.06,-0.001 c -0.601,-0.023 -1.113,-0.469 -1.756,-0.75 l -0.033,-0.016 h -0.035 c -0.621,-0.016 -1.241,-0.022 -1.861,-0.022 -0.82,0 -1.638,0.009 -2.454,0.009 -0.017,0 -0.035,0 -0.054,0 -0.029,0 -0.061,0 -0.092,0.001 h -0.009 l -0.007,10e-4 c -1.228,0.12 -2.374,0.536 -3.533,0.751 -1.334,0.256 -2.67,0.536 -3.988,0.848 l -0.035,0.008 -0.029,0.022 c -0.372,0.266 -0.745,0.456 -1.166,0.455 -0.021,10e-4 -0.043,0 -0.064,-10e-4 l -0.078,-0.002 -0.057,0.055 c -0.324,0.327 -0.891,0.302 -1.447,0.548 -0.449,0.215 -0.988,0.293 -1.504,0.543 -0.73,0.379 -1.596,0.532 -2.373,0.998 -0.779,0.455 -1.691,0.707 -2.538,1.17 -0.288,0.137 -0.448,0.375 -0.591,0.572 -0.146,0.205 -0.273,0.369 -0.455,0.444 l -0.102,0.042 -0.012,0.109 c -0.041,0.384 -0.113,0.763 -0.225,1.132 l -0.041,0.141 0.127,0.073 c 0.289,0.168 0.563,0.35 0.81,0.562 0.198,1.222 0.659,2.431 1.456,3.406 0.514,0.922 1.254,1.653 1.852,2.452 l 0.01,0.011 0.012,0.013 c 1.113,1.033 1.686,2.535 2.729,3.753 0.359,0.486 0.856,0.815 1.25,1.198 l 0.01,0.009 0.011,0.009 c 0.673,0.477 1.401,0.848 1.729,1.533 l 0.031,0.063 0.064,0.026 c 0.307,0.126 0.596,0.21 0.797,0.385 0.342,0.29 0.748,0.313 1.017,0.464 0.231,0.193 0.458,0.428 0.749,0.613 l 0.033,0.021 0.037,0.006 c 0.361,0.057 0.715,0.047 1.053,0.057 0.047,0.078 0.104,0.172 0.139,0.227 l 0.035,0.058 0.064,0.021 c 1.043,0.342 2.133,0.438 3.212,0.438 0.401,0 0.801,-0.014 1.198,-0.032 l 0.01,-0.001 0.007,-10e-4 c 1.08,-0.155 1.772,-0.97 2.524,-1.489 0.234,-0.199 0.635,-0.25 0.963,-0.559 0.52,-0.446 0.903,-0.998 1.348,-1.46 0.109,0.07 0.24,0.156 0.318,0.206 l 0.125,0.082 0.107,-0.108 c 0.199,-0.2 0.398,-0.401 0.598,-0.599 l 0.168,-0.168 -0.202,-0.124 c -0.19,-0.115 -0.376,-0.224 -0.544,-0.341 0.021,-0.124 0.128,-0.28 0.209,-0.492 0.256,-0.576 0.432,-1.165 0.723,-1.677 0.369,-0.656 0.392,-1.385 0.605,-1.991 0.594,-0.856 0.7,-1.888 0.935,-2.798 0.229,-0.401 0.485,-0.854 0.487,-1.387 0,-0.03 0,-0.059 -0.002,-0.087 -0.003,-0.581 -0.003,-1.167 -0.003,-1.753 z m -7.788,12.143 c 0.233,-0.228 0.466,-0.458 0.698,-0.688 0.666,-0.072 1.293,-0.231 1.914,-0.23 0.01,0 0.018,0 0.026,0 -0.151,0.184 -0.299,0.366 -0.45,0.544 -0.66,0.422 -1.365,0.813 -1.988,1.34 -0.066,0.058 -0.133,0.104 -0.205,0.146 -0.004,-0.146 -0.004,-0.29 -0.004,-0.436 0,-0.227 0.002,-0.451 0.009,-0.676 z m -7.061,-0.712 c 0.115,-0.056 0.23,-0.11 0.346,-0.165 0.354,0.129 0.684,0.193 0.838,0.417 0.225,0.26 0.287,0.626 0.33,1.007 l 0.006,0.057 0.037,0.044 c 0.041,0.046 0.082,0.095 0.123,0.142 -0.044,0.003 -0.086,0.004 -0.127,0.004 -0.164,0 -0.281,-0.024 -0.375,-0.105 l -0.008,-0.006 -0.008,-0.005 c -0.396,-0.282 -0.805,-0.583 -1.275,-0.794 0.042,-0.2 0.079,-0.4 0.113,-0.596 z m 4.554,1.106 c 0.065,0 0.131,0.002 0.197,0.009 0.467,0.247 0.869,0.652 1.126,1.118 -0.272,0.007 -0.542,0.015 -0.811,0.015 -0.518,0 -1.022,-0.031 -1.511,-0.162 l -0.025,-0.006 h -0.026 c -0.013,0 -0.026,0 -0.044,0 -0.331,0 -0.644,-0.1 -0.942,-0.262 0.65,-0.383 1.323,-0.714 2.036,-0.712 z m 1.38,-0.535 c -0.329,-0.338 -0.71,-0.727 -1.286,-0.754 h -0.025 l -0.023,0.004 c -0.68,0.166 -1.355,0.336 -2.033,0.469 -0.315,-0.86 -1.135,-1.43 -1.991,-1.593 -0.087,-0.017 -0.173,-0.024 -0.259,-0.023 -0.57,0.003 -1.031,0.346 -1.393,0.684 l -0.059,0.055 v 0.081 c 0,0.173 -10e-4,0.346 -0.002,0.52 -0.189,-0.186 -0.377,-0.377 -0.574,-0.563 -0.419,-0.398 -0.926,-0.615 -1.297,-0.938 -0.899,-0.784 -1.607,-1.769 -2.236,-2.803 0.498,-0.6 1.199,-0.983 1.899,-1.411 -0.013,0.118 -0.034,0.315 -0.044,0.418 l -0.01,0.104 0.082,0.064 c 0.096,0.072 0.285,0.215 0.383,0.288 l 0.121,0.092 0.113,-0.1 c 0.242,-0.212 0.484,-0.382 0.764,-0.437 l 0.088,-0.017 0.041,-0.08 c 0.162,-0.321 0.531,-0.513 0.885,-0.798 l 0.158,-0.13 -0.146,-0.146 c -0.105,-0.091 -0.221,-0.306 -0.447,-0.406 0.499,-0.229 0.984,-0.431 1.492,-0.427 0.064,0 0.129,0.003 0.193,0.011 l 0.021,0.002 0.021,-0.003 c 0.093,-0.012 0.186,-0.017 0.279,-0.017 0.616,-0.004 1.254,0.229 1.959,0.231 0.012,0 0.025,0 0.038,0 0.497,0.414 0.774,1.195 1.575,1.512 l 0.11,0.041 0.085,-0.083 c 0.137,-0.133 0.271,-0.267 0.404,-0.398 l 0.106,-0.105 -0.081,-0.126 c -0.286,-0.452 -0.659,-0.812 -0.896,-1.213 0.09,-0.001 0.189,-0.005 0.288,-0.021 0.173,-0.017 0.372,-0.148 0.444,-0.366 0.209,-0.006 0.418,-0.01 0.629,-0.014 l 0.08,-10e-4 0.055,-0.06 c 0.064,-0.07 0.181,-0.197 0.266,-0.292 0.021,0 0.043,0 0.063,0 0.46,0 0.917,-0.019 1.37,-0.019 0.322,0 0.645,0.009 0.961,0.039 0.604,0.154 1.225,0.366 1.904,0.368 0.004,0 0.007,0 0.01,0 0.1,0.141 0.219,0.262 0.357,0.364 0.035,0.643 0.182,1.355 0.742,1.826 0.029,0.584 0.15,1.217 0.566,1.707 -0.346,0.881 -0.684,1.758 -1.098,2.598 -0.082,0.002 -0.164,0.003 -0.248,0.003 -0.352,0 -0.711,-0.018 -1.076,-0.018 -0.443,0 -0.895,0.024 -1.344,0.142 -0.937,0.064 -1.825,0.793 -1.984,1.739 z m 5.562,-8.521 -0.004,-0.07 -0.05,-0.049 c -0.263,-0.262 -0.524,-0.525 -0.783,-0.789 l -0.062,-0.063 -0.086,0.005 c -0.08,0.006 -0.161,0.01 -0.242,0.01 -0.629,0.001 -1.254,-0.181 -1.895,-0.358 l -0.017,-0.005 -0.016,-10e-4 c -0.337,-0.033 -0.672,-0.041 -1.005,-0.041 -0.346,0 -0.689,0.008 -1.031,0.008 -0.123,0 -0.245,0 -0.367,-0.004 -0.033,-0.002 -0.064,-0.004 -0.098,-0.004 -0.465,0.009 -0.793,0.281 -1.1,0.344 -0.848,0.206 -1.514,0.816 -2.232,0.803 -0.082,0 -0.164,-0.006 -0.25,-0.022 -0.545,-0.161 -1.101,-0.202 -1.648,-0.202 -0.463,0 -0.92,0.028 -1.366,0.04 l -0.036,0.001 -0.032,0.014 c -1.071,0.463 -2.298,0.814 -3.198,1.715 -0.594,0.404 -1.408,0.706 -1.876,1.406 -0.15,-0.281 -0.325,-0.567 -0.584,-0.8 -0.601,-0.537 -1.045,-1.248 -1.614,-1.889 -0.27,-0.384 -0.475,-0.835 -0.785,-1.249 -0.482,-0.65 -0.759,-1.438 -0.963,-2.246 0.556,0.207 1.135,0.248 1.701,0.248 0.416,0 0.828,-0.022 1.225,-0.022 h 0.059 l 0.047,-0.031 c 0.448,-0.311 0.688,-0.781 1.012,-1.075 0.549,-0.487 0.807,-1.15 1.071,-1.753 0.31,0.312 0.618,0.621 0.915,0.938 l 0.059,0.063 0.086,-0.005 h 0.004 c 0.191,0 0.405,0.017 0.626,0.017 0.339,10e-4 0.714,-0.043 1.028,-0.304 l 0.012,-0.012 0.011,-0.011 c 0.305,-0.359 0.666,-0.671 1.038,-0.983 0.219,0.281 0.427,0.574 0.641,0.867 l 0.051,0.07 0.086,0.006 c 0.043,0.003 0.084,0.004 0.125,0.004 0.883,-0.009 1.5,-0.682 2.078,-1.081 l 0.018,-0.015 0.016,-0.017 c 0.131,-0.156 0.362,-0.267 0.6,-0.41 0.158,-0.097 0.328,-0.222 0.441,-0.408 0.316,0.312 0.713,0.621 1.222,0.627 0.097,0 0.194,-0.012 0.294,-0.037 l 0.027,-0.006 0.025,-0.015 c 0.213,-0.129 0.298,-0.344 0.322,-0.523 0.021,-0.152 0.02,-0.297 0.027,-0.414 0.055,-0.047 0.121,-0.103 0.182,-0.156 0.127,0.159 0.227,0.374 0.346,0.594 0.15,0.275 0.367,0.576 0.777,0.666 l 0.006,0.002 0.008,0.001 c 0.359,0.051 0.73,0.077 1.1,0.077 0.361,0 0.722,-0.025 1.072,-0.078 l 0.035,-0.006 0.03,-0.018 c 0.882,-0.519 1.845,-1.119 2.397,-2.07 0.035,0.057 0.066,0.109 0.09,0.148 l 0.029,0.047 0.051,0.024 c 0.408,0.194 0.811,0.433 1.259,0.612 l 0.03,0.014 0.033,0.002 c 0.018,0 0.035,0 0.051,0 0.32,-0.002 0.6,-0.107 0.855,-0.177 0.009,0.162 0.018,0.326 0.027,0.491 l 0.004,0.076 0.057,0.051 c 0.069,0.063 0.195,0.182 0.285,0.266 0.008,0.598 0.01,1.194 0.01,1.792 0,0.602 -0.002,1.204 -0.002,1.806 0,0.43 10e-4,0.859 0.006,1.289 0.001,0.036 0.002,0.069 0.002,0.102 0,0.495 -0.152,0.988 -0.475,1.342 l -0.047,0.052 -0.002,0.067 c -0.017,0.621 -0.293,1.223 -0.441,1.895 -0.051,0.285 -0.239,0.532 -0.457,0.785 l -0.038,0.046 -0.005,0.06 c -0.008,0.096 -0.017,0.192 -0.023,0.289 -0.004,-0.169 -0.014,-0.348 -0.064,-0.534 l -0.006,-0.019 -0.008,-0.016 c -0.197,-0.395 -0.468,-0.707 -0.635,-1.043 -0.051,-0.226 -0.047,-0.481 -0.066,-0.751 z m -1.219,-9.799 c -0.64,0.882 -1.331,1.79 -2.339,2.103 -0.174,0.016 -0.35,0.021 -0.528,0.021 -0.192,0 -0.389,-0.006 -0.587,-0.008 -0.443,-0.638 -0.991,-1.162 -1.341,-1.791 l -0.054,-0.098 -0.112,0.002 c -0.455,0.014 -0.814,0.244 -1.131,0.448 l -0.084,0.054 v 0.102 c 0,0 0,0 0,0.01 0,0.203 -0.031,0.399 -0.09,0.589 -0.105,-0.314 -0.271,-0.617 -0.553,-0.852 l -0.12,-0.099 -0.118,0.1 c -0.371,0.312 -0.661,0.688 -0.935,1.057 -0.638,0.517 -1.302,0.999 -2.026,1.359 -0.354,-0.354 -0.677,-0.728 -0.91,-1.153 l -0.052,-0.096 -0.108,-0.001 c -0.119,-0.003 -0.359,-0.006 -0.479,-0.007 l -0.109,-0.002 -0.056,0.094 c -0.218,0.373 -0.367,0.757 -0.606,1.048 -0.281,0.283 -0.629,0.516 -0.99,0.733 -0.053,-0.008 -0.113,-0.018 -0.162,-0.026 -0.479,-0.415 -0.887,-0.945 -1.416,-1.385 l -0.037,-0.031 -0.048,-0.01 c -0.069,-0.012 -0.176,-0.031 -0.276,-0.047 0.131,-0.059 0.26,-0.111 0.392,-0.148 0.757,-0.131 1.303,-0.642 1.901,-0.629 0.053,0 0.106,0.004 0.161,0.012 l 0.094,0.014 0.067,-0.068 c 0.066,-0.068 0.188,-0.192 0.273,-0.281 0.231,-0.008 0.463,-0.016 0.693,-0.021 l 0.135,-0.004 0.039,-0.128 c 0.064,-0.199 0.193,-0.267 0.435,-0.329 0.235,-0.055 0.532,-0.06 0.802,-0.146 1.584,-0.41 3.24,-0.616 4.859,-1.067 0.742,-0.156 1.457,-0.377 2.172,-0.376 0.064,0 0.131,10e-4 0.195,0.006 0.314,0.005 0.619,0.007 0.926,0.007 0.484,0 0.967,-0.004 1.451,-0.004 0.145,0 0.289,0 0.433,10e-4 h 0.009 0.005 c 0.019,-10e-4 0.036,-0.002 0.055,-0.002 0.183,-0.002 0.376,0.061 0.585,0.134 -0.153,0.321 -0.255,0.645 -0.415,0.915 z m 2.371,0.809 c -0.182,-0.131 -0.365,-0.26 -0.557,-0.381 -0.016,-0.158 -0.03,-0.315 -0.045,-0.475 l -0.008,-0.058 -0.037,-0.044 c -0.06,-0.07 -0.117,-0.14 -0.168,-0.21 0.097,0.03 0.19,0.062 0.283,0.098 0.304,0.194 0.512,0.528 0.716,0.883 -0.061,0.063 -0.122,0.125 -0.184,0.187 z m -23.088,4.271 c -0.004,0 -0.01,10e-4 -0.014,10e-4 -0.074,-0.005 -0.093,-0.021 -0.139,-0.105 -0.029,-0.06 -0.047,-0.147 -0.055,-0.231 0.656,-0.291 1.166,-0.754 1.769,-0.936 1.026,-0.355 1.872,-0.993 2.835,-1.255 0.219,-0.061 0.422,-0.146 0.614,-0.234 -0.296,0.704 -0.583,1.402 -0.962,2.048 -0.254,0.342 -0.664,0.626 -0.914,1.095 -0.32,0.002 -0.638,0.014 -0.951,0.013 -0.215,10e-4 -0.428,-0.004 -0.638,-0.021 -0.411,-0.206 -0.853,-0.382 -1.349,-0.382 -0.063,-0.002 -0.129,0 -0.196,0.007 z m 0.017,0.188 0,0 0,0 0,0 z"
           id="path1152" />
        <path
           inkscape:connector-curvature="0"
           d="m 740.829,364.011 -0.071,-0.057 c -0.088,-0.068 -0.266,-0.211 -0.354,-0.282 l -0.114,-0.09 -0.114,0.088 c -0.3,0.229 -0.614,0.442 -0.934,0.645 l -0.086,0.056 v 0.102 c 0,0.117 0.002,0.345 0.002,0.456 v 0.09 l 0.071,0.057 c 0.088,0.069 0.265,0.212 0.355,0.283 l 0.113,0.085 0.113,-0.085 c 0.301,-0.228 0.613,-0.44 0.934,-0.643 l 0.086,-0.055 v -0.103 c 0,-0.115 -0.001,-0.344 -0.001,-0.456 v -0.091 z"
           id="path1154" />
      </g>
    </g>
  </g>
</svg>
