<?xml version="1.0" encoding="UTF-8" standalone="no"?>
<!-- Created with Inkscape (http://www.inkscape.org/) -->

<svg
   xmlns:dc="http://purl.org/dc/elements/1.1/"
   xmlns:cc="http://creativecommons.org/ns#"
   xmlns:rdf="http://www.w3.org/1999/02/22-rdf-syntax-ns#"
   xmlns:svg="http://www.w3.org/2000/svg"
   xmlns="http://www.w3.org/2000/svg"
   xmlns:sodipodi="http://sodipodi.sourceforge.net/DTD/sodipodi-0.dtd"
   xmlns:inkscape="http://www.inkscape.org/namespaces/inkscape"
   width="1044.0343"
   height="1140.4294"
   id="svg4318"
   version="1.1"
   inkscape:version="0.48.0 r9654"
   sodipodi:docname="fuck yea with text.svg">
  <title
     id="title4966">like a sir</title>
  <defs
     id="defs4320" />
  <sodipodi:namedview
     id="base"
     pagecolor="#ffffff"
     bordercolor="#666666"
     borderopacity="1.0"
     inkscape:pageopacity="0.0"
     inkscape:pageshadow="2"
     inkscape:zoom="0.175"
     inkscape:cx="-43.658154"
     inkscape:cy="905.21829"
     inkscape:document-units="px"
     inkscape:current-layer="layer1"
     showgrid="false"
     fit-margin-top="0"
     fit-margin-left="0"
     fit-margin-right="0"
     fit-margin-bottom="0"
     inkscape:window-width="1920"
     inkscape:window-height="1018"
     inkscape:window-x="-8"
     inkscape:window-y="-8"
     inkscape:window-maximized="1" />
  <metadata
     id="metadata4323">
    <rdf:RDF>
      <cc:Work
         rdf:about="">
        <dc:format>image/svg+xml</dc:format>
        <dc:type
           rdf:resource="http://purl.org/dc/dcmitype/StillImage" />
        <dc:title>like a sir</dc:title>
        <cc:license
           rdf:resource="http://creativecommons.org/licenses/publicdomain/" />
      </cc:Work>
      <cc:License
         rdf:about="http://creativecommons.org/licenses/publicdomain/">
        <cc:permits
           rdf:resource="http://creativecommons.org/ns#Reproduction" />
        <cc:permits
           rdf:resource="http://creativecommons.org/ns#Distribution" />
        <cc:permits
           rdf:resource="http://creativecommons.org/ns#DerivativeWorks" />
      </cc:License>
    </rdf:RDF>
  </metadata>
  <g
     inkscape:label="Ebene 1"
     inkscape:groupmode="layer"
     id="layer1"
     transform="translate(445.66942,-924.04028)">
    <g
       id="g5050"
       transform="translate(-36.365492,1361.6856)">
      <path
         style="fill:#ffffff"
         d="M -196.21557,-26.729117 -361.88059,-258.73664 -1.7994715,-396.11739 190.05544,-75.189817 c 79.44655,8.240539 96.06192,45.040703 118.26208,79.3023316 l 20.88895,54.6738364 12.91274,187.553279 -98.99767,134.04986 60.61187,108.05919 62.62946,205.74356 -451.105266,1.58585 24.599952,-69.29806 44.200837,-79.77006 -46.871391,-100.17824 -133.402572,-101.85227 -44.46096,-98.24887 z"
         id="path5054"
         inkscape:connector-curvature="0"
         sodipodi:nodetypes="ccccccccccccccccc" />
      <path
         style="fill:#010101"
         d="m -7.3172,702.32208 c -49.36003,-1.0592 -112.42058,-4.0546 -113.77007,-5.4041 -0.30979,-0.3098 3.02338,-0.5633 7.40706,-0.5633 9.64652,0 16.35249,-2.8529 21.95065,-9.3383 8.00096,-9.269 12.02172,-20.6929 18.88679,-53.6617 6.88156,-33.048 10.30097,-42.5181 23.83076,-66 16.20394,-28.12305 19.68319,-42.03167 14.63696,-58.51251 -5.7573,-18.80318 -19.7659,-36.50325 -42.44215,-53.62627 -9.12641,-6.89142 -22.16467,-15.45741 -45.13834,-29.65535 -43.79884,-27.06809 -60.05645,-38.87091 -77.39445,-56.18739 -17.29948,-17.27802 -26.37967,-30.42913 -35.41946,-51.29913 -13.02714,-30.07552 -19.54775,-60.79369 -19.54775,-92.08819 0,-24.89012 3.84281,-47.04571 17.93863,-103.42452 8.65943,-34.63498 15.06137,-63.22826 15.06137,-67.26932 0,-2.39865 -0.46736,-2.31261 -17.97529,3.30915 -16.19264,5.19942 -31.103,10.89034 -66.02471,25.20001 -15.675,6.42305 -35.7,14.08967 -44.5,17.03693 -18.14265,6.07627 -40.30033,11.82504 -43.71229,11.34108 -2.93827,-0.41677 -7.53409,-8.88198 -11.84867,-21.82449 -2.40189,-7.20497 -3.29289,-11.93638 -3.6882,-19.58509 -0.48043,-9.29562 -0.3583,-10.23689 1.56016,-12.0242 4.87925,-4.54572 52.37725,-24.34442 95.689,-39.88628 43.78947,-15.71328 82.14771,-31.42281 83.15873,-34.05748 0.24672,-0.64294 -6.03325,-11.01903 -13.95549,-23.05797 -7.92225,-12.03894 -25.57065,-40.33898 -39.21867,-62.88898 -13.64803,-22.55 -28.17776,-46.4 -32.28829,-53 -20.82901,-33.44368 -47.09588,-70.37759 -65.07351,-91.5 -4.44708,-5.225 -8.09396,-10.20671 -8.10419,-11.07048 -0.0224,-1.89449 26.47311,-28.0908 36.98142,-36.56379 37.22391,-30.01412 88.69796,-57.68179 149.33223,-80.26712 33.008,-12.29497 79.16201,-27.01924 135.16777,-43.12186 13.75,-3.95336 35.63429,-10.29041 48.63175,-14.08234 12.99746,-3.79193 24.32921,-6.89441 25.18167,-6.89441 3.1755,0 20.32002,20.40121 33.61471,40 18.46023,27.21372 36.054,61.10968 63.06485,121.5 29.00065,64.83907 50.96925,107.0126 64.72923,124.26189 l 1.80433,2.2619 13.48673,-3.57225 c 15.29392,-4.05093 41.24168,-12.64503 66.98673,-22.18653 53.573,-19.85497 86.01614,-28.59497 121.5,-32.73142 7.15,-0.83349 17.1625,-1.51952 22.25,-1.52452 l 9.25,-0.009 0,3.18611 c 0,5.48204 -3.0352,15.99132 -7.0222,24.31389 -7.60732,15.87966 -19.63287,27.14493 -39.4778,36.98186 -17.34634,8.59841 -31.85636,12.92163 -72.35224,21.55711 -29.89004,6.37386 -40.90061,9.11491 -54.58299,13.58831 -17.42446,5.69685 -33.34526,13.1265 -31.50525,14.70234 0.24227,0.20748 7.19048,4.11867 15.44048,8.69153 36.41686,20.18539 55.51791,33.89327 74.0105,53.1137 10.71897,11.14086 16.79092,19.09198 24.22438,31.72147 13.08097,22.22464 21.44122,48.66131 24.18386,76.4738 0.53315,5.40657 1.53891,10.51639 2.23502,11.35516 3.85768,4.64821 22.51474,14.94562 35.84624,19.78465 10.01764,3.63618 24.4642,4.51748 35.1352,2.1434 7.5616,-1.6823 19.8648,-6.85181 19.8648,-8.34673 0,-0.45008 -1.983,-4.00486 -4.4067,-7.89951 -7.2497,-11.64951 -8.8718,-15.43428 -8.938,-20.85509 -0.079,-6.43842 2.1967,-9.90815 7.9342,-12.09931 5.3381,-2.03865 12.7621,-1.51209 19.4608,1.38028 4.2288,1.82595 4.6446,2.34417 5.885,7.33589 1.6185,6.51353 2.4531,34.35389 1.358,45.3045 l -0.7933,7.93336 -10.0327,5.13286 c -20.2888,10.38003 -36.6418,15.91405 -51.59846,17.46144 -10.03281,1.03799 -17.87135,-0.2112 -28.05474,-4.47095 -10.91532,-4.56591 -9.8141,-6.05245 -9.8141,13.24808 0,64.11025 -14.50437,124.52714 -40.55526,168.92997 -12.82983,21.86799 -26.24182,39.7197 -43.46551,57.85375 l -10.06736,10.59946 2.22588,3.68934 c 7.6519,12.68283 15.75849,21.84602 25.4776,28.79829 7.39178,5.28748 27.54824,15.08517 39.88465,19.38721 4.95,1.72619 18.1634,6.05711 29.36312,9.62426 23.67296,7.53991 37.09652,12.73301 49.29668,19.07111 10.0611,5.22688 10.3899,5.20201 21.8402,-1.65221 14.1035,-8.44244 25.9086,-20.74348 39.3846,-41.03933 8.0144,-12.07026 11.2286,-17.52174 30.0693,-51 17.4337,-30.9782 33.6456,-52.29613 47.5103,-62.47371 23.1139,-16.96715 49.7742,-16.29048 83.8096,2.12718 l 8.2738,4.47723 -3.1631,5.93465 -3.1632,5.93465 -9.9485,0 -9.9486,0 0.6903,4.25 c 0.631,3.88492 2.9677,11.43893 4.9915,16.13645 0.6116,1.41972 0.464,1.7449 -0.5967,1.31433 -0.7751,-0.31467 -9.8083,-3.30802 -20.0737,-6.65189 l -18.6645,-6.07977 -5.1845,-5.98456 c -2.8515,-3.29151 -5.7233,-5.98456 -6.3818,-5.98456 -2.4507,0 -16.8896,10.37739 -23.4742,16.87118 -13.7924,13.60215 -23.0124,28.13573 -42.9818,67.75261 -19.9266,39.53181 -31.5261,57.8298 -44.2966,69.87685 -12.7774,12.05351 -28.4818,18.49936 -45.0712,18.49936 -17.03148,0 -27.10417,-4.32547 -51.281,-22.02138 -8.25,-6.03848 -19.05,-12.99951 -24,-15.46895 -12.33742,-6.15486 -33.5,-11.1913 -33.5,-7.9726 0,2.92183 7.14987,24.68189 12.30948,37.46293 2.99742,7.425 11.17754,26.1 18.17805,41.5 28.92145,63.6226 38.63483,95.8636 42.44528,140.8861 0.55329,6.5373 1.26052,12.1406 1.57164,12.4517 1.03587,1.0359 13.77567,2.0431 34.49555,2.7274 21.1632,0.6989 51.7499,-0.7214 92.5,-4.2951 23.7793,-2.0855 66.6369,-2.3284 78,-0.4421 11.3788,1.8889 16.7568,3.3219 15.8149,4.2141 -0.7006,0.6638 -20.9549,2.8546 -40.8149,4.4149 -3.3,0.2593 -69.45,0.897 -147,1.4172 -77.55,0.5203 -154.275,1.4228 -170.5,2.0058 -84.26691,3.0276 -185.72025,4.3166 -243,3.0874 z m -33.28495,-11.561 c 2.63172,-0.8766 11.82255,-5.9391 20.42405,-11.25 l 15.6391,-9.6564 0.69223,-17 c 0.78754,-19.3407 -0.59171,-45.0903 -3.05313,-57 -1.90057,-9.196 -4.70251,-15.2583 -9.9616,-21.553 -7.00228,-8.3812 -6.553,-8.5615 -13.36176,5.3609 -7.58782,15.5154 -13.62749,31.1057 -19.46179,50.2371 -5.81736,19.0758 -15.63215,56.731 -15.63215,59.9739 0,2.4755 0.0226,2.4811 9.96505,2.4811 6.44975,0 11.65301,-0.5622 14.75,-1.5936 z m 196.6318,-5.6379 c -0.13298,-5.8445 -0.7051,-7.7551 -4.34214,-14.5 -8.26501,-15.3275 -12.46791,-20.4697 -43.5386,-53.2685 -12.244,-12.925 -24.49767,-26.2 -27.23039,-29.5 -11.71467,-14.1465 -20.25199,-30.4038 -22.07666,-42.03955 -1.16672,-7.4401 0.46615,-21.10828 3.45094,-28.88651 0.3959,-1.03169 -1.44093,-1.19948 -8.87453,-0.81065 -7.91689,0.4141 -10.07925,0.17823 -13.91308,-1.51766 -7.9548,-3.51878 -11.73276,-10.72852 -13.7913,-26.31886 -2.27314,-17.21563 -3.02629,-19.7772 -6.70684,-22.81103 -5.31943,-4.38472 -17.13548,-10.81286 -25.34117,-13.78605 -6.18905,-2.24249 -9.21236,-2.72159 -17.48308,-2.77052 -10.13029,-0.0599 -19.00419,1.93356 -21.38687,4.80451 -0.768,0.92539 2.64438,6.74263 13.01966,22.1952 34.82633,51.86908 45.86009,76.06512 53.06192,116.35992 1.92848,10.79 2.25265,16.1404 2.27695,37.5812 0.0156,13.75 -0.31448,26.9125 -0.73348,29.25 l -0.76182,4.25 8.76182,0.034 c 14.79535,0.057 27.94696,1.7041 47.59327,5.9611 23.50989,5.0941 30.8811,5.6749 45.56902,3.5906 6.27027,-0.8898 11.55714,-1.4611 11.74862,-1.2696 0.19148,0.1914 -2.56582,3.6862 -6.12734,7.7662 -3.56151,4.0799 -6.48589,7.9529 -6.49861,8.6067 -0.0324,1.6633 18.90081,4.24 28.97686,3.9437 l 4.5,-0.1324 -0.15315,-6.7315 z m 61.83477,6.7165 c 1.0344,-1.0344 -1.18568,-11.0142 -2.99523,-13.4644 -2.74699,-3.7194 -13.67261,-8.8427 -21.35922,-10.0159 -13.02116,-1.9873 -28.97255,2.4227 -29.63867,8.1943 -0.26433,2.2903 0.4927,3.2322 5,6.2212 6.09575,4.0423 14.8631,7.3124 22.8115,8.5084 6.21625,0.9353 25.39515,1.3429 26.18162,0.5564 z m 37.47965,-1.0921 c 1.68294,-0.4514 2.72399,-2.385 4.70381,-8.7363 5.58977,-17.9322 6.95247,-28.4628 4.35531,-33.6566 -0.68757,-1.375 -3.33829,-3.6065 -5.8905,-4.9589 l -4.64037,-2.459 -8.84476,7.9489 c -20.16026,18.1182 -21.78796,20.4726 -22.71719,32.8595 -0.45684,6.0898 0.1129,8.3789 2.22506,8.9399 2.51671,0.6685 28.35433,0.7209 30.80864,0.062 z m 103.33873,-1.877 c 0,-0.8162 -1.15688,-7.0037 -2.57084,-13.75 -7.13435,-34.0393 -17.0405,-67.055 -29.62721,-98.743 -8.2235,-20.7034 -28.41436,-62.31876 -29.9821,-61.79618 -2.04508,0.68169 -10.70335,16.22456 -13.5176,24.26608 l -2.80225,8.0072 -0.0341,57.5 -0.0341,57.5 -2.65886,8.5682 c -1.46237,4.7126 -3.58452,10.9167 -4.7159,13.7871 -1.13138,2.8703 -2.05705,5.4271 -2.05705,5.6817 0,0.2547 19.8,0.463 44,0.463 38.23469,0 44,-0.1945 44,-1.4841 z m -134.89311,-41.0159 c 4.28038,-9.1201 6.00909,-16.8596 6.58914,-29.5 1.1957,-26.0561 -8.77628,-54.8888 -24.4108,-70.5808 -8.97932,-9.01235 -22.08828,-14.96419 -23.71087,-10.76542 -2.18516,5.65455 -4.78226,22.58472 -5.28397,34.44562 -0.96931,22.9152 2.86669,43.6813 10.94947,59.2745 5.11196,9.862 15.58154,20.806 23.76014,24.8367 l 5.5,2.7107 1.89544,-2.2107 c 1.0425,-1.2158 3.16265,-4.9106 4.71145,-8.2106 z m -63.52178,-7.75 c -7.47144,-8.6431 -11.42617,-15.6619 -13.28354,-23.5755 -1.9198,-8.1795 -2.20998,-23.5788 -1.2658,-67.1745 0.50426,-23.28357 -0.26569,-28.96578 -5.2846,-39 -2.32838,-4.65508 -4.38651,-7.23039 -7.25117,-9.0733 -4.33317,-2.78764 -13.95052,-6.9267 -16.09461,-6.9267 -1.45614,0 -3.4982,6.11714 -6.17534,18.49869 -2.70701,12.51965 -2.38745,41.43111 0.62451,56.50131 6.53341,32.6896 18.76811,57.5876 33.5379,68.2508 3.80703,2.7486 13.48274,6.6955 16.48702,6.7255 2.29914,0.023 2.25543,-0.1198 -1.29437,-4.2263 z m 102.44451,-19.25 c 7.09958,-14.1632 7.55333,-30.67 1.43472,-52.194 -3.43875,-12.0968 -16.7712,-38.66411 -32.02021,-63.806 -7.00529,-11.55 -14.80852,-24.47644 -17.34051,-28.72542 -2.53199,-4.24899 -4.88224,-7.73649 -5.22278,-7.75 -0.87719,-0.0348 -1.80062,6.00487 -2.53138,16.55656 -1.28967,18.62188 3.36963,35.75113 19.18628,70.53556 16.0523,35.3026 20.42328,48.1594 22.96505,67.5491 0.82457,6.2902 1.51264,12.2011 1.52905,13.1354 0.0527,3.003 7.73444,-6.7921 11.99978,-15.3012 z M 109.6828,583.99548 c 0,-0.1975 -1.5769,-3.7721 -3.50421,-7.9435 -6.45278,-13.9662 -9.93207,-30.83997 -12.51551,-60.6973 -3.31402,-38.30089 -8.60675,-57.4777 -19.1783,-69.48763 l -3.97195,-4.51237 -24.24835,0 c -13.33659,0 -24.50691,0.25856 -24.82293,0.57458 -1.07651,1.07651 4.25448,18.90167 7.90308,26.42542 6.91619,14.26184 21.26657,25.75932 41.20773,33.01552 l 6.36955,2.31775 -0.59448,5.08337 c -0.39324,3.36254 -2.85705,9.71487 -7.2782,18.76503 -9.87869,20.22183 -10.62342,17.65093 11.31715,39.06833 l 18.18358,17.75 5.56642,0 c 3.06153,0 5.56642,-0.1616 5.56642,-0.3592 z m 171.02875,-61.81126 c 2.93093,-17.37651 -1.21268,-24.77736 -25.16224,-44.94193 -6.4646,-5.44294 -12.01069,-10.31188 -12.32465,-10.81988 -0.31396,-0.508 3.03568,-7.95077 7.44365,-16.5395 4.40797,-8.58872 8.01449,-16.40245 8.01449,-17.36383 0,-0.96139 -2.06773,-3.75418 -4.59496,-6.20619 -2.52723,-2.45202 -6.34061,-7.00391 -8.47418,-10.11532 -4.95572,-7.22698 -8.30735,-9.84289 -12.61117,-9.84289 -4.34531,0 -7.94016,3.46 -8.89765,8.56389 -1.04175,5.55299 0.22196,32.59265 1.9839,42.44956 6.18935,34.62539 21.2059,58.31867 43.70887,68.96429 9.24975,4.37584 9.49169,4.28388 10.91394,-4.1482 z m -97.76644,-26.57954 c 0.31117,-4.39987 1.84914,-11.85661 3.55787,-17.25 4.70513,-14.85123 4.75201,-15.40584 1.4772,-17.47767 -1.53856,-0.97338 -6.39738,-5.48441 -10.79738,-10.02451 -7.43559,-7.67235 -8.41127,-8.34003 -13.82931,-9.46364 -3.20611,-0.6649 -6.13111,-0.90724 -6.5,-0.53854 -1.2762,1.27557 -1.42366,32.54037 -0.18332,38.87025 1.70898,8.72155 5.45673,16.12742 9.3921,18.55962 2.8862,1.78377 12.13111,4.82461 15.22764,5.00868 0.67611,0.0402 1.32047,-2.95121 1.6552,-7.68419 z M 109.1828,467.0254 c 5.45219,-2.95879 7.44101,-7.38507 7.75108,-17.25059 l 0.24892,-7.92013 -13.5,-0.25011 c -7.425,-0.13757 -14.11665,0.14746 -14.87034,0.63338 -1.13609,0.73248 -0.99019,2.05727 0.85355,7.75012 1.22313,3.77663 3.60985,9.9387 5.30381,13.69348 l 3.07992,6.82687 3.56653,-0.65615 c 1.96159,-0.36088 5.36653,-1.63297 7.56653,-2.82687 z m 101.3397,-26.1123 c 1.67011,-13.58999 1.47993,-19.01157 -0.82541,-23.53041 -2.63265,-5.16041 -3.59952,-5.59067 -5.62311,-2.50227 -1.92151,2.93259 -6.37064,5.39351 -14.39118,7.96009 -3.025,0.96801 -5.86475,2.09195 -6.31056,2.49765 -0.73361,0.66761 23.98124,25.01652 25.3925,25.01652 0.3286,0 1.11959,-4.24871 1.75776,-9.44158 z M 72.1828,427.31172 c 96.34712,-7.12159 173.15267,-47.39294 217.33895,-113.95704 12.13223,-18.27652 20.78305,-36.11779 28.85016,-59.5 11.19452,-32.4469 17.34164,-81.15783 14.47121,-114.67262 -0.66975,-7.81997 -1.46757,-14.46771 -1.77293,-14.77275 -0.30536,-0.30505 -7.40354,-0.55463 -15.77373,-0.55463 l -15.21853,0 -7.63383,3.77313 c -10.44773,5.16393 -17.8782,13.37689 -27.8571,30.79067 l -7.69957,13.4362 -6.85231,1.74377 c -18.68658,4.75534 -33.94935,6.99423 -50.85232,7.45953 l -17,0.46796 -15.68738,-4.08563 c -8.62806,-2.2471 -16.72806,-4.08141 -18,-4.07625 -6.2632,0.0254 -20.10279,11.80622 -32.29483,27.49062 -3.42028,4.4 -11.74668,16.1 -18.50311,26 C 81.94512,249.93616 74.6556,259.25659 65.89353,267.5194 45.94402,286.3322 27.9852,285.42035 6.74491,264.51616 -5.73685,252.23191 -5.59324,252.79195 1.73091,244.9624 c 6.75399,-7.22004 14.33636,-11.60772 20.05934,-11.60772 4.81619,0 7.59109,3.22259 11.78156,13.68236 6.26696,15.64285 7.51736,17.04383 9.79079,10.96978 13.95905,-37.29534 23.74464,-58.00784 36.50456,-77.26675 22.40394,-33.81491 48.83629,-52.11968 79.31564,-54.92719 12.68644,-1.16857 29.33831,2.3684 50.37668,10.70034 4.05718,1.60678 7.46934,2.79093 7.58257,2.63144 0.11324,-0.15949 2.08056,-3.81079 4.37183,-8.114 8.56706,-16.08973 18.87633,-26.73999 32.88982,-33.97767 14.44101,-7.45849 29.81639,-10.64477 51.5291,-10.6785 l 12.75,-0.01981 0,-3.94878 c 0,-12.48994 -5.3782,-40.51153 -11.08216,-57.74042 -13.19073,-39.84284 -41.93587,-69.3273 -81.03734,-83.12162 -18.88385,-6.6619 -26.4846,-7.68927 -56.8805,-7.68836 -24.46964,7.3e-4 -28.82234,0.25254 -39.5,2.28508 -25.32287,4.82032 -41.97778,9.92646 -85.48366,26.20798 -92.68464,34.68606 -169.41604,70.57985 -201.11246,94.07738 -8.35501,6.19382 -18.16861,16.52457 -23.71973,24.96968 -5.71453,8.6937 -16.34565,29.75811 -19.57609,38.78787 -14.78583,41.3295 -17.81889,92.33734 -8.06136,135.57011 7.49453,33.20608 23.85676,66.68004 42.33101,86.60108 l 6.02793,6.5 0.039,-4 c 0.0214,-2.2 -0.38648,-7.825 -0.90647,-12.5 -0.51999,-4.675 -2.10721,-22.45 -3.52717,-39.5 -4.98,-59.79709 -8.36136,-83.78261 -16.17498,-114.73663 l -4.4772,-17.73663 8.3206,-10.38956 c 4.57631,-5.71425 12.82058,-16.85729 18.32058,-24.76229 18.29656,-26.29716 27.68862,-38.27645 38.39358,-48.96983 15.11637,-15.1 28.986,-23.92836 48.29268,-30.73945 16.67438,-5.88245 25.88468,-6.83967 68.65758,-7.13556 l 4.34384,-0.0301 -0.64221,-5.25 C 0.87506,30.21713 -0.14501,23.46997 -1.03854,18.11094 -1.93208,12.75191 -2.39423,8.09832 -2.06554,7.76963 -0.507,6.2111 3.21532,9.11072 6.82871,14.69812 c 4.55903,7.04963 14.0279,26.17238 19.14126,38.65651 19.54406,47.71629 23.99229,97.01291 11.64017,129 -11.90627,30.83259 -41.24255,48.30872 -78.42734,46.72057 -27.52488,-1.17559 -43.03013,-9.16312 -90.5,-46.62111 -13.48879,-10.64387 -32.77458,-24.09941 -34.54162,-24.09941 -1.09954,0 0.21616,26.15263 2.0878,41.5 0.87196,7.15 3.54092,25.375 5.93103,40.5 9.48439,60.01878 11.25767,83.34002 7.94588,104.5 -0.86081,5.5 -1.81155,11.64381 -2.11275,13.65292 l -0.54763,3.65291 13.64498,9.13239 c 56.81788,38.02737 79.92582,47.96142 124.59231,53.56194 26.70197,3.34804 61.19086,4.32763 86.5,2.45688 z M 150.84007,260.6368 c -1.68857,-0.32112 -3.08472,-2.02829 -5,-6.11382 -2.55305,-5.44598 -2.67045,-6.45492 -2.99342,-25.72436 -0.26541,-15.83507 -0.055,-20.28881 1,-21.16203 0.73488,-0.60829 6.67628,-2.94647 13.20311,-5.19595 11.59604,-3.99659 11.85593,-4.03855 11.38389,-1.83796 -3.9305,18.32355 -4.03991,19.25492 -2.90781,24.75347 0.62299,3.02581 3.38816,11.69642 6.14483,19.26802 2.75667,7.57161 5.01213,14.43344 5.01213,15.24853 0,1.23295 -1.97446,1.4591 -11.75,1.3458 -6.4625,-0.0749 -12.80423,-0.33667 -14.09273,-0.5817 z m 44.84273,-11.60398 c 0,-6.1618 2.69165,-13.24089 6.13674,-16.13975 4.71924,-3.97098 12.0042,-5.62094 27.61326,-6.25411 15.92501,-0.64598 16.14233,-0.54068 11.60094,5.62133 -10.7246,14.55172 -22.63073,21.05444 -38.60094,21.08252 l -6.75,0.0119 0,-4.32186 z m -8.68486,-23.14995 c 1.04824,-11.22537 4.9639,-15.70151 17.45066,-19.94853 12.74337,-4.3343 26.92735,-5.62624 38.80054,-3.53412 6.81582,1.20099 15.43366,4.01992 15.43366,5.04841 0,1.372 -7.46949,7.22595 -11.44919,8.9729 -5.37842,2.36093 -13.50136,3.64154 -28.05081,4.4223 -12.96939,0.69598 -17.88228,2.23769 -26.89854,8.44104 -2.45399,1.6884 -4.7833,3.06981 -5.17624,3.06981 -0.39294,0 -0.44247,-2.91231 -0.11008,-6.47181 z m 105.01234,-1.04813 c -5.05343,-3.02903 -10.60449,-10.35309 -13.78199,-18.18395 -2.07205,-5.10648 -5.23554,-18.39874 -7.03184,-29.54611 l -0.60428,-3.75 10.45809,0 10.45808,0 2.54711,10.75 c 3.05651,12.89987 4.62735,24.94212 4.62735,35.47377 0,8.83469 -0.30358,9.07384 -6.67252,5.25629 z M 169.6828,118.74915 C 158.16804,115.6634 140.64462,105.57772 124.04783,92.48378 l -7.13497,-5.6291 0.13497,-15.5 c 0.12163,-13.96811 -0.0936,-16.102 -2.17754,-21.59113 C 111.43508,40.71526 103.71956,31.53659 89.1828,19.20478 70.15084,3.0596 63.36746,-6.06878 62.03378,-17.32964 l -0.59965,-5.06314 5.37433,-4.00249 c 9.76102,-7.26944 8.97185,-7.29043 17.27029,0.45939 15.62231,14.58951 35.02859,20.29993 68.92641,20.28201 18.7345,-0.01 29.77056,-0.87972 64.06905,-5.04963 13.69027,-1.66443 28.36172,-3.29384 32.60321,-3.62092 l 7.71181,-0.5947 -0.79318,5.8869 c -0.43625,3.2378 -1.26368,18.2619 -1.83875,33.3869 -1.44017,37.87861 -3.75167,50.82469 -11.87343,66.5 -7.22974,13.95367 -22.01053,25.30004 -37.00029,28.40303 -7.63669,1.58084 -29.55289,1.27296 -36.20078,-0.50856 z m 25,-18.00251 c 11.58069,-2.79132 22.58459,-8.93824 31.22658,-17.44357 10.14979,-9.98928 13.23244,-16.33314 12.54357,-25.81374 -0.47419,-6.52615 -3.76456,-16.05519 -6.25854,-18.12501 -0.97733,-0.81112 -1.99407,0.73387 -4.42139,6.71851 -1.73371,4.27452 -3.99379,8.87198 -5.02241,10.21659 l -1.8702,2.44475 -5.34881,-4.18229 c -2.94184,-2.30025 -7.3738,-5.82127 -9.8488,-7.82448 -5.70009,-4.61353 -13.58558,-8.36032 -17.62169,-8.37295 -2.07793,-0.007 -5.73615,1.69696 -10.94094,5.09469 -4.30059,2.80745 -12.57083,7.41172 -18.37831,10.2317 -12.83214,6.231 -18.94343,11.78891 -21.53195,19.58223 -2.41201,7.26187 -1.60873,12.36224 2.64396,16.78768 11.2598,11.71718 32.98426,15.95118 54.82893,10.68589 z M 144.60141,48.05335 c 6.55635,-7.07223 15.40161,-10.86312 40.20147,-17.2295 11.69075,-3.00113 24.20882,-6.86564 27.81792,-8.5878 l 6.562,-3.13119 -3,-1.05059 c -1.72959,-0.60569 -11.89286,-1.05008 -24,-1.04938 -18.53186,0.001 -21.94024,0.25944 -29,2.19838 -15.52452,4.26378 -25.58769,10.48265 -29.55891,18.26689 -2.3637,4.63322 -2.45602,9.30539 -0.32851,16.62378 l 1.61258,5.54708 2.62117,-3.39317 c 1.44164,-1.86624 4.62417,-5.55377 7.07228,-8.1945 z M -40.67254,212.25486 c 20.04128,-6.13875 38.33616,-20.55901 52.28749,-41.21368 5.09449,-7.54229 12.85941,-24.58015 15.16414,-33.27327 3.03065,-11.43126 2.97705,-25.52436 -0.13444,-35.34419 -2.51848,-7.94833 -7.50388,-16.37078 -9.96185,-16.82978 -1.01916,-0.19032 -4.0311,4.44493 -9.39581,14.45972 -4.3427,8.1069 -14.87146,26.67859 -23.39726,41.27042 -18.00502,30.81547 -26.67171,47.44159 -32.22909,61.82811 -2.18781,5.66363 -3.97784,10.50113 -3.97784,10.75 0,1.0527 5.25842,0.3088 11.64466,-1.64733 z m -20.98172,-13.65018 c 19.56575,-19.33247 33.74767,-42.87173 57.28884,-95.0885 C 5.68457,81.22426 8.95353,73.29208 8.34226,72.68081 7.71267,72.05122 -0.88468,80.91935 -6.79161,88.29134 c -13.36907,16.68492 -24.16408,35.35956 -48.09142,83.19494 -16.80741,33.60127 -17.85069,35.8684 -16.50575,35.8684 0.48341,0 4.86394,-3.9375 9.73452,-8.75 z m -19.80196,2.1278 c 2.80319,-0.56063 3.78917,-1.92102 9.96569,-13.75 3.77009,-7.22029 13.17709,-23.7387 20.90443,-36.70758 16.42094,-27.5594 23.57019,-40.80876 29.09925,-53.92822 4.82728,-11.45426 9.87467,-28.06346 10.33473,-34.00798 0.30249,-3.90855 0.044,-4.49968 -2.66986,-6.10465 -5.49751,-3.25126 -14.36786,-4.87937 -26.584,-4.87937 l -11.66858,0 -1.05987,2.75 c -0.58293,1.5125 -3.40231,8.825 -6.26528,16.25 -2.86297,7.425 -11.771,26.325 -19.79561,42 -8.02461,15.675 -18.7886,36.87859 -23.91997,47.11908 l -9.32977,18.61908 11.14751,10.88092 c 13.10257,12.78924 13.5028,13.02643 19.84133,11.75872 z m 91.77858,-8.7904 C 24.18922,185.48546 33.71467,169.67094 32.40909,155.27282 31.43841,144.568 31.07007,144.76173 19.49599,162.06448 8.69947,178.20482 5.52018,183.72983 3.1289,190.50744 c -1.23145,3.49031 -1.19914,3.84633 0.34826,3.83747 0.9381,-0.005 4.01844,-1.08664 6.8452,-2.40283 z m -129.00117,-47.3374 c 0.61572,-0.9625 6.19284,-9.60581 12.39361,-19.20736 13.54574,-20.97483 20.9166,-35.05354 24.95886,-47.67265 3.72861,-11.63995 3.85472,-13.76727 0.75914,-12.80626 -14.05609,4.36365 -30.33964,18.88249 -37.50032,33.43627 -4.49538,9.13667 -7.21117,18.8499 -7.2349,25.87621 -0.0163,4.83416 3.75672,22.12379 4.82799,22.12379 0.37188,0 1.1799,-0.7875 1.79562,-1.75 z"
         id="path5052"
         inkscape:connector-curvature="0" />
    </g>
  </g>
</svg>
