<?xml version="1.0" encoding="UTF-8" standalone="no"?>
<!-- Created with Inkscape (http://www.inkscape.org/) -->

<svg
   xmlns:dc="http://purl.org/dc/elements/1.1/"
   xmlns:cc="http://creativecommons.org/ns#"
   xmlns:rdf="http://www.w3.org/1999/02/22-rdf-syntax-ns#"
   xmlns:svg="http://www.w3.org/2000/svg"
   xmlns="http://www.w3.org/2000/svg"
   xmlns:sodipodi="http://sodipodi.sourceforge.net/DTD/sodipodi-0.dtd"
   xmlns:inkscape="http://www.inkscape.org/namespaces/inkscape"
   width="440.92349"
   height="527.50256"
   id="svg4318"
   version="1.1"
   inkscape:version="0.48.4 r9939"
   sodipodi:docname="me_gusta_with_text.svg">
  <title
     id="title4966">Me Gusta</title>
  <defs
     id="defs4320" />
  <sodipodi:namedview
     id="base"
     pagecolor="#ffffff"
     bordercolor="#666666"
     borderopacity="1.0"
     inkscape:pageopacity="0.0"
     inkscape:pageshadow="2"
     inkscape:zoom="1.4"
     inkscape:cx="56.710105"
     inkscape:cy="208.06873"
     inkscape:document-units="px"
     inkscape:current-layer="layer1"
     showgrid="false"
     fit-margin-top="1"
     fit-margin-left="1"
     fit-margin-right="3"
     fit-margin-bottom="1"
     inkscape:window-width="1280"
     inkscape:window-height="776"
     inkscape:window-x="0"
     inkscape:window-y="24"
     inkscape:window-maximized="1" />
  <metadata
     id="metadata4323">
    <rdf:RDF>
      <cc:Work
         rdf:about="">
        <dc:format>image/svg+xml</dc:format>
        <dc:type
           rdf:resource="http://purl.org/dc/dcmitype/StillImage" />
        <dc:title>Me Gusta</dc:title>
        <cc:license
           rdf:resource="http://creativecommons.org/licenses/publicdomain/" />
      </cc:Work>
      <cc:License
         rdf:about="http://creativecommons.org/licenses/publicdomain/">
        <cc:permits
           rdf:resource="http://creativecommons.org/ns#Reproduction" />
        <cc:permits
           rdf:resource="http://creativecommons.org/ns#Distribution" />
        <cc:permits
           rdf:resource="http://creativecommons.org/ns#DerivativeWorks" />
      </cc:License>
    </rdf:RDF>
  </metadata>
  <g
     inkscape:label="Ebene 1"
     inkscape:groupmode="layer"
     id="layer1"
     transform="translate(-63.983068,-76.481746)">
    <path
       style="fill:#ffffff;fill-rule:nonzero"
       d="m 283.95182,77.485145 c -0.54639,-0.0115 -1.02967,0.008 -1.46875,0.0312 -6.6939,0.35505 -19.62638,3.35504 -57,13.3125 -39.52102,10.529595 -51.91712,16.561665 -78,37.937495 -15.7908,12.94111 -26.92275,25.28279 -36.15625,40.0625 -15.18101,24.29968 -19.5144,34.57338 -27.375,64.9375 -2.27812,8.8 -5.42446,20.5 -7,26 -7.05487,24.62765 -11.96475,54.80315 -11.96875,73.5625 -0.007,32.82031 15.85877,71.03354 43.375,104.4375 11.12043,13.49991 14.53162,17.05762 23.5625,24.625 12.64639,10.59697 25.96017,19.31624 40.9375,26.8125 12.18712,6.09973 29.78937,13.61416 37.625,16.0625 2.2,0.68742 8.44769,3.28032 13.875,5.75 11.39573,5.1856 29.34488,9.86943 54.125,14.125 14.67655,2.52044 19.73684,2.9124 37.0625,3 20.49631,0.10366 29.23166,-1.06217 31.15625,-4.21875 0.43097,-0.70686 5.50625,-2.34595 11.28125,-3.625 16.94767,-3.75356 25.49508,-7.18382 43.28125,-17.375 21.59425,-12.37317 24.53187,-14.45717 30.34375,-21.40625 2.65072,-3.16939 7.35872,-8.51776 10.4375,-11.875 11.13407,-12.14107 33.88069,-44.80927 39.46875,-56.6875 8.03953,-17.08918 11.79864,-36.86991 14.46875,-76.1875 0.59762,-8.8 2.22419,-26.575 3.625,-39.5 2.68631,-24.78595 2.66084,-33.02145 -0.15625,-46.46875 -2.42594,-11.58012 -6.32769,-22.35115 -11.0625,-30.5 -3.93058,-6.76475 -4.57848,-8.65037 -5.03125,-15.125 -0.77456,-11.0762 -0.89826,-11.4198 -8.1875,-19.28125 -3.71614,-4.00787 -8.44034,-10.48671 -10.5,-14.40625 -7.13643,-13.58065 -25.83269,-36.35708 -38.25,-46.59375 -16.89485,-13.9279 -45.56578,-26.511755 -78.6875,-34.562495 -35.22293,-8.56147 -55.58544,-12.67158 -63.78125,-12.84375 z"
       id="path4434-8"
       inkscape:connector-curvature="0"
       sodipodi:nodetypes="csssssscsssssssssssssssssssssssc" />
    <path
       style="fill:#090909"
       d="m 278.78571,525.81116 c -24.78012,-4.25557 -42.73644,-8.94181 -54.13217,-14.12741 -5.42731,-2.46968 -11.66783,-5.05277 -13.86783,-5.74019 -7.83563,-2.44834 -25.43563,-9.96211 -37.62275,-16.06184 -14.97733,-7.49626 -28.27936,-16.20893 -40.92575,-26.8059 -9.03088,-7.56738 -12.45036,-11.14229 -23.57079,-24.6422 C 81.150184,405.02966 65.281054,366.82771 65.287634,334.0074 c 0.004,-18.75936 4.91486,-48.94613 11.96973,-73.57378 1.57554,-5.5 4.72854,-17.2 7.00666,-26 7.8606,-30.36412 12.19217,-40.64033 27.373186,-64.94001 9.2335,-14.77971 20.3577,-27.10261 36.1485,-40.04372 26.08288,-21.37583 38.47898,-27.40447 78,-37.934064 37.37362,-9.95746 50.3061,-12.98387 57,-13.33892 7.02534,-0.37264 27.683,3.68492 65.25412,12.81715 33.12172,8.05074 61.79439,20.650294 78.68924,34.578194 12.41731,10.23667 31.10309,32.99678 38.23952,46.57743 2.05966,3.91954 6.78531,10.40559 10.50145,14.41346 7.28924,7.86145 7.43285,8.19871 8.20741,19.27491 0.45277,6.47463 1.08225,8.3759 5.01283,15.14065 4.73481,8.14885 8.64653,18.92626 11.07247,30.50638 2.81709,13.4473 2.8452,21.66259 0.15889,46.44854 -1.40081,12.925 -3.0359,30.7 -3.63352,39.5 -2.67011,39.31759 -6.42719,59.10579 -14.46672,76.19497 -5.58806,11.87823 -28.34089,44.5599 -39.47496,56.70097 -3.07878,3.35724 -7.76655,8.69719 -10.41727,11.86658 -5.81188,6.94908 -8.77231,9.03628 -30.36656,21.40945 -17.78617,10.19118 -26.32923,13.62101 -43.2769,17.37457 -5.775,1.27905 -10.85262,2.90388 -11.28359,3.61074 -1.92459,3.15658 -10.6516,4.34488 -31.14791,4.24122 -17.32566,-0.0876 -22.39195,-0.50052 -37.0685,-3.02096 z m 60.5,-7.18455 c 13.14335,-2.66731 33.13586,-9.53527 44.98939,-15.45506 14.62731,-7.30505 44.89828,-27.3304 53.55592,-35.42919 8.38488,-7.84365 16.0138,-18.56643 28.13962,-39.5515 10.44092,-18.06915 15.31507,-29.80285 15.31507,-36.86842 0,-2.94687 1.12176,-7.08267 3.17916,-11.72121 2.98099,-6.72081 3.22476,-8.16498 3.91056,-23.16761 0.40226,-8.8 2.16161,-25.675 3.90966,-37.5 2.93388,-19.84686 3.14045,-22.92247 2.68648,-40 -0.54119,-20.35891 -2.00432,-27.74493 -7.75141,-39.12984 -1.65822,-3.28492 -5.66028,-13.7841 -8.89347,-23.33151 -6.21981,-18.36671 -18.44583,-43.29556 -27.05311,-55.16132 -6.58652,-9.07999 -24.53023,-26.13313 -35.54497,-33.78084 -14.84024,-10.30381 -26.506,-15.74905 -51.43978,-24.01061 -24.27432,-8.043064 -32.01831,-9.638484 -58.63937,-12.080894 -8.87494,-0.81426 -16.79035,-1.73146 -17.58979,-2.03824 -0.79944,-0.30677 -2.01051,0.11334 -2.69125,0.93359 -0.98922,1.19194 -2.87855,1.37675 -9.41022,0.92052 -10.00454,-0.69882 -32.67405,1.10653 -45.59594,3.63116 -12.72148,2.48548 -25.56847,7.265494 -45.30638,16.857254 -34.10766,16.57483 -51.62399,35.48848 -74.58029,80.52975 -11.088236,21.75561 -13.365926,29.25431 -22.526036,74.16098 -8.84905,43.38175 -12.66864,65.76004 -12.66587,74.20698 0.004,11.35245 8.18728,39.22392 17.10332,58.25024 9.577296,20.43743 19.526956,32.46971 43.398706,52.48277 32.65869,27.37965 48.78996,37.65022 72,45.84147 27.85733,9.83137 50.97489,16.67949 66.5,19.69932 20.33758,3.9559 50.08303,4.73945 65,1.71221 z m -2.03517,-51.19299 c -0.11099,-3.85 -0.12184,-7.59259 -0.0241,-8.31686 0.13761,-1.01991 -0.2816,-1.07107 -1.85901,-0.22686 -1.73724,0.92974 -1.93955,0.83687 -1.37603,-0.63166 0.54168,-1.41158 0.0874,-1.31343 -2.5225,0.54495 -1.75074,1.24664 -3.18317,2.00013 -3.18317,1.67442 0,-0.32571 1.575,-2.88185 3.5,-5.68031 4.12067,-5.9904 4.63306,-8.54044 1.36457,-6.7912 -1.99084,1.06547 -2.08897,0.95772 -1.4492,-1.5913 0.55995,-2.23102 0.3966,-2.623 -0.88771,-2.13017 -1.29711,0.49775 -1.3878,0.25617 -0.51562,-1.37352 1.19312,-2.22935 0.72433,-2.44195 -2.07778,-0.94231 -1.11291,0.59561 -1.93426,0.64104 -1.93426,0.10699 0,-0.5105 0.73941,-1.21193 1.64313,-1.55872 0.90372,-0.34679 1.39554,-0.87812 1.09293,-1.18072 -0.30261,-0.30261 -1.91967,0.15798 -3.59347,1.02353 -4.48655,2.32009 -4.85838,1.94307 -1.57968,-1.60171 l 2.93707,-3.17544 -3.5,1.98249 c -5.9444,3.36708 -7.91644,3.74939 -4.75,0.92086 3.81062,-3.40396 3.44884,-3.77189 -1.5,-1.52553 -2.3375,1.06103 -5.06406,1.93903 -6.05902,1.95111 -0.99496,0.0121 -1.5309,0.47196 -1.19098,1.02196 0.36058,0.58342 -0.65628,1 -2.44098,1 -1.68246,0 -3.05902,-0.44272 -3.05902,-0.98382 0,-0.5411 -1.57737,-0.23163 -3.50527,0.68772 -2.03464,0.97025 -3.04475,1.95617 -2.40761,2.34994 0.67215,0.41541 -0.12344,1.5479 -2.0523,2.92137 -3.80943,2.71255 -4.68317,2.17924 -2.70306,-1.64987 1.88498,-3.64514 14.11153,-10.70803 22.12834,-12.78283 12.60771,-3.26295 18.29556,-1.43582 22.32942,7.17298 2.35903,5.03447 2.69618,6.95148 2.60021,14.78451 -0.0607,4.95 -0.81066,11.7 -1.66669,15 l -1.55641,6 -0.2018,-7 z M 163.3988,436.29331 c -1.86281,-0.81244 -5.41502,-3.02573 -7.89381,-4.91842 -3.06838,-2.34289 -5.57811,-3.44127 -7.86308,-3.44127 -4.05283,0 -4.41542,-1.50248 -0.6062,-2.51197 l 2.75,-0.72878 -3.5,-1.30355 c -3.12244,-1.16292 -3.23031,-1.31557 -1,-1.41506 l 2.5,-0.11151 -2.5,-1.42913 c -1.375,-0.78602 -3.94838,-1.44508 -5.71861,-1.46456 -2.44222,-0.0269 -3.07977,-0.39727 -2.64302,-1.53544 0.36449,-0.94984 -0.0138,-1.5 -1.03138,-1.5 -1.78559,0 -2.1596,-1.54043 -0.60699,-2.5 0.55,-0.33992 1,-2.81492 1,-5.5 0,-2.68508 -0.45,-5.16008 -1,-5.5 -2.20889,-1.36517 -0.76247,-5.02325 3.78384,-9.56955 5.17731,-5.17732 9.32333,-6.91632 11.72915,-4.91967 1.97248,1.63702 1.87881,3.88716 -0.26299,6.31747 -1.67975,1.90602 -1.66972,1.96351 0.25,1.43212 17.13671,-4.74356 23.5693,-6.1429 38.0119,-8.26908 9.35654,-1.37743 22.58503,-2.92746 29.39664,-3.4445 12.65748,-0.96078 14.63603,-1.54763 13.17699,-3.90839 -0.6476,-1.04785 -1.30101,-1.09345 -2.95836,-0.20646 -1.46145,0.78214 -2.7137,0.82453 -4.0013,0.13542 -1.44443,-0.77303 -2.28246,-0.55181 -3.65499,0.96482 -2.28674,2.52682 -3.47088,2.49848 -3.47088,-0.0831 0,-1.96819 -0.13487,-1.94802 -3.34439,0.5 -4.16325,3.17546 -4.44908,3.16928 -4.83919,-0.10474 l -0.31642,-2.65562 -3.25,2.74452 -3.25,2.74452 0,-2.76321 0,-2.76321 -2.60889,2.42432 -2.60889,2.42431 -1.50723,-2.24119 -1.50723,-2.24118 -3.13388,2.63889 c -2.69533,2.26961 -3.18053,2.40102 -3.46725,0.93904 -0.27505,-1.40252 -1.09164,-1.07851 -4.66829,1.85229 -5.15843,4.22695 -6.14509,4.46885 -3.83269,0.93968 l 1.71175,-2.61247 -5.1887,2.62932 c -4.29501,2.17644 -5.1887,2.35645 -5.1887,1.04508 0,-1.95423 -2.10106,-1.39211 -10.44784,2.79522 -5.7754,2.89734 -5.8977,2.9153 -4.21826,0.61959 0.95127,-1.30035 2.65975,-3.82677 3.79662,-5.61427 1.13687,-1.7875 2.27414,-3.25 2.52727,-3.25 0.25314,0 0.18213,0.45 -0.15779,1 -1.06354,1.72084 1.3857,1.09675 5.26987,-1.3428 2.05157,-1.28855 4.25139,-2.16479 4.88849,-1.94722 0.6371,0.21758 1.45115,-0.0782 1.80902,-0.65719 1.00193,-1.62116 2.82092,-1.24646 2.17099,0.44721 -0.79177,2.06333 -0.11551,1.89763 4.16468,-1.02042 3.05007,-2.07941 3.75448,-2.24943 4.02573,-0.97168 0.2707,1.27519 1.24215,1.03549 5.5,-1.35712 2.84417,-1.59823 5.69248,-2.71222 6.32958,-2.47554 0.6371,0.23668 1.45115,-0.0434 1.80902,-0.62245 0.35786,-0.57904 1.31493,-1.05279 2.12682,-1.05279 1.1865,0 1.25713,0.40927 0.35996,2.08565 -1.75347,3.27639 -0.56133,3.26946 4.79754,-0.0279 5.5897,-3.43938 7.14143,-3.85469 5.12074,-1.37053 -1.22154,1.50173 -1.15255,1.5979 0.62756,0.87473 1.1,-0.44688 3.35,-0.91219 5,-1.03402 1.65,-0.12184 5.17481,-1.19047 7.83291,-2.37473 5.73218,-2.55386 6.31182,-2.63499 4.66709,-0.65321 -1.67042,2.01273 -0.68356,1.88937 4,-0.5 5.13633,-2.62036 6.81167,-2.56503 4.40499,0.14547 -1.89557,2.13486 -1.89262,2.14268 0.59501,1.58074 1.375,-0.31061 3.56373,-0.89196 4.86385,-1.29188 2.08414,-0.6411 2.28325,-0.47315 1.68262,1.41926 -1,3.15072 -0.005,2.6858 5.76339,-2.69346 8.84444,-8.24754 20.64019,-16.21006 23.89048,-16.12686 0.71481,0.0183 0.17466,0.97822 -1.20034,2.13315 -2.40883,2.02331 -2.41795,2.07434 -0.25,1.39935 2.75888,-0.85899 2.99546,1.09198 0.67626,5.57682 -1.78296,3.44787 -1.4387,4.31352 1.36194,3.42463 1.45768,-0.46265 2.08635,-1.86017 2.5329,-5.63055 0.7565,-6.38754 5.30029,-14.84516 9.18368,-17.09417 3.09294,-1.79123 14.54398,-5.12708 15.23336,-4.43769 0.21277,0.21277 -1.55377,1.07321 -3.92564,1.91208 -4.10777,1.45281 -4.17008,1.53248 -1.3125,1.67833 l 3,0.15311 -4,1.94215 -4,1.94216 3.77241,-0.45709 c 2.21507,-0.26839 3.53238,-0.0687 3.19098,0.48368 -0.31978,0.51743 -1.25642,0.94077 -2.08142,0.94077 -0.825,0 -1.22307,0.44809 -0.8846,0.99575 0.33847,0.54766 -0.55251,1.52788 -1.97997,2.17828 -3.75445,1.71064 -2.75829,3.91785 3.21581,7.1253 4.20385,2.25702 5.60651,2.58923 7.24036,1.71481 2.1775,-1.16536 2.68077,-3.4917 0.98245,-4.54132 -0.57418,-0.35487 -2.26168,0.13347 -3.75,1.0852 l -2.70602,1.7304 2.35477,-2.57018 c 1.29512,-1.4136 2.07002,-3.03092 1.72199,-3.59404 -1.33189,-2.15505 3.99828,-3.57896 13.42324,-3.5859 5.27349,-0.004 9.82686,-0.45886 10.23469,-1.02265 1.32725,-1.83483 0.82859,-3.47716 -0.85913,-2.82952 -1.44587,0.55483 -1.43323,0.33152 0.11501,-2.03139 2.0232,-3.08779 1.72552,-3.18833 -3.27269,-1.10528 l -3.71788,1.54947 4.5,-4.69464 c 2.76877,-2.88853 3.73057,-4.40278 2.5,-3.93601 -5.70742,2.16491 -5.86532,1.65727 -1.03759,-3.33586 5.07861,-5.25261 5.39627,-6.39638 0.9712,-3.49696 -3.62166,2.373 -3.74221,1.36223 -0.43361,-3.63546 3.33874,-5.04321 3.18793,-6.00838 -0.55556,-3.55556 -3.75807,2.46239 -4.15947,1.18179 -0.94893,-3.02745 2.56815,-3.36701 2.61569,-3.58706 0.63945,-2.95983 -2.47806,0.78651 -2.67487,-0.15924 -0.60316,-2.89829 2.16199,-2.85841 1.79919,-3.63521 -1.17049,-2.50614 -3.56083,1.35383 -4.16003,0.42638 -1.53192,-2.37112 2.74942,-2.92663 2.75464,-4.45587 0.0166,-4.86206 -2.11397,-0.31361 -2.10304,-0.37994 0.58839,-3.56896 1.50832,-1.78718 2.82772,-3.83068 2.93199,-4.54112 0.10427,-0.71043 1.19026,-2.98774 2.41332,-5.06067 1.22306,-2.07293 1.77297,-3.49037 1.22202,-3.14987 -1.69885,1.04995 -1.11626,-0.48221 1.47532,-3.87994 1.36238,-1.78617 2.85383,-5.01864 3.31433,-7.18328 0.64491,-3.03139 0.99408,-0.25933 1.51963,12.06429 0.37529,8.8 0.68384,19.12713 0.68567,22.94918 0.002,4.55478 0.92743,10.14858 2.68532,16.23468 3.04145,10.53002 4.11854,11.81371 1.85491,2.21069 -1.62674,-6.90109 -1.99289,-12.89826 -0.7869,-12.88845 0.4125,0.003 0.80167,1.94904 0.86482,4.32374 0.14663,5.51367 4.63336,15.54914 8.72479,19.51471 3.9119,3.79156 10.28996,6.12825 17.03612,6.2414 4.7075,0.079 4.88027,0.16218 2.12427,1.02311 -1.65,0.51544 -4.575,0.69723 -6.5,0.40398 -3.44093,-0.52418 -3.45781,-0.50969 -1,0.85846 4.7153,2.62481 8.93799,2.99113 11.21267,0.97271 2.04225,-1.81218 2.05878,-1.80689 0.95187,0.30449 -1.09609,2.09074 -0.97189,2.14195 4.60449,1.8985 5.10784,-0.22298 5.82814,-0.52289 6.62462,-2.75826 0.49151,-1.37944 0.58115,-3.75323 0.19918,-5.27508 l -0.69447,-2.767 -2.19918,1.97756 c -1.20955,1.08765 -3.01755,2.26733 -4.01778,2.62151 -1.63918,0.58042 -1.61452,0.38451 0.25,-1.98585 1.13773,-1.44639 2.0686,-3.18901 2.0686,-3.87249 0,-0.68349 0.675,-1.8029 1.5,-2.48759 3.56493,-2.95863 -0.003,-10.09601 -6.85806,-13.71855 -1.02194,-0.54005 -3.6653,-5.2118 -5.87414,-10.38168 -3.62257,-8.47874 -4.06266,-10.42861 -4.49146,-19.89977 -0.26147,-5.775 0.0199,-13.1731 0.62535,-16.44023 1.27532,-6.88237 1.2524,-6.91196 -6.75282,-8.71682 -5.75202,-1.29686 -7.44132,-3.1774 -4.67278,-5.20181 1.03901,-0.75974 1.94122,-3.16393 2.26487,-6.03533 0.34548,-3.0651 0.83169,-4.29727 1.35901,-3.44406 0.64445,1.04274 1.14537,0.89935 2.32874,-0.66662 1.48527,-1.96547 1.50816,-1.96095 1.53949,0.30456 0.0257,1.85717 0.35519,2.11871 1.7124,1.35918 1.14747,-0.64215 2.1015,-0.51963 3.00737,0.38624 1.56717,1.56717 7.67734,0.92147 11.02685,-1.16527 3.05857,-1.90548 4.28519,-1.72796 4.28519,0.62017 0,2.48725 1.0533,2.52541 4.11514,0.14909 5.0309,-3.90451 6.58592,-4.30084 10.48415,-2.67205 4.70856,1.96736 6.37518,1.9202 8.02403,-0.22704 1.25465,-1.63389 1.38581,-1.60072 1.97688,0.5 0.73659,2.61796 1.21175,2.70681 3.84093,0.7182 2.52582,-1.91044 3.55887,-1.85622 3.55887,0.18679 0,1.53998 0.12708,1.53998 1.82874,0 2.58128,-2.33603 3.17126,-2.08151 3.17126,1.36806 0,2.99277 0.025,3.00669 2.49391,1.38899 2.29861,-1.50611 2.8092,-1.50792 6.52023,-0.0231 2.54216,1.01717 7.01079,1.61102 12.12273,1.61102 7.60525,0 8.06465,0.12138 7.57315,2.00088 -0.67905,2.59668 2.76505,5.32847 9.59656,7.6118 l 5.19342,1.73582 -5,1.30646 c -2.75,0.71855 -6.2375,1.31514 -7.75,1.32575 -2.61668,0.0183 -2.75,0.25278 -2.75,4.83563 0,2.64899 0.43986,7.26149 0.97748,10.25 1.30075,7.23071 1.50477,14.42361 0.5674,20.00491 l -0.76773,4.57125 7.61143,2.25958 c 4.18628,1.24277 7.61142,2.67321 7.61142,3.17875 0,1.24726 0.0673,1.26116 -8.02869,-1.65921 -3.93133,-1.41811 -7.3413,-2.38496 -7.57771,-2.14856 -0.45251,0.45252 3.3202,3.12253 12.8564,9.09868 3.1625,1.98188 5.75,3.83401 5.75,4.11584 0,1.51776 -3.46824,-0.0631 -10.83953,-4.94074 -4.53256,-2.99924 -8.88911,-5.20447 -9.68121,-4.90051 -0.79211,0.30396 -1.88211,2.15315 -2.42223,4.10931 -0.54013,1.95616 -2.23642,4.92289 -3.76954,6.59274 l -2.78749,3.03609 3,-1.85777 c 2.66245,-1.64874 2.52181,-1.33533 -1.25,2.78543 -2.59318,2.83308 -4.25,5.60349 -4.25,7.10651 0,3.57402 1.37574,3.88191 4.10464,0.91862 2.42706,-2.63552 9.22774,-6.27509 11.8004,-6.3153 0.77277,-0.0121 -1.25223,1.70648 -4.5,3.81902 -3.24777,2.11255 -7.81391,5.44894 -10.14697,7.41421 -6.68412,5.63047 -12.08962,7.24485 -24.25807,7.24485 -5.775,0 -12.54877,-0.35177 -15.05282,-0.7817 l -4.55283,-0.78171 -1.33311,5.20152 c -1.44545,5.63986 -6.69486,12.23627 -12.6825,15.93683 -1.85831,1.1485 -3.37874,2.72648 -3.37874,3.50662 0,1.73114 2.16297,1.85547 3.8,0.21844 0.66,-0.66 1.2,-0.90496 1.2,-0.54436 0,0.3606 1.85658,6e-4 4.12573,-0.8 4.99786,-1.76335 7.24886,-1.87076 6.27781,-0.29957 -0.51607,0.83502 0.34613,0.98396 3.10468,0.53631 5.87172,-0.95285 6.40795,-2.342 1.64041,-4.24959 -4.43083,-1.77286 -4.83582,-2.3556 -2.94863,-4.24279 1.9461,-1.9461 3.40878,-1.43384 8.48918,2.97308 7.15096,6.203 13.32222,9.82571 16.7566,9.83663 1.97335,0.006 4.60807,1.24489 7.44495,3.5 2.4149,1.91966 4.51027,3.49029 4.65638,3.49029 0.14611,0 0.0303,-0.9 -0.25736,-2 -0.6808,-2.60338 -0.32211,-2.54992 6.71025,1 7.07587,3.57189 7.40232,3.62025 5.93542,0.87932 -0.91911,-1.71736 -0.87826,-1.96729 0.21481,-1.31414 3.54373,2.11751 6.84977,4.9062 6.84977,5.77787 0,0.53181 -0.82293,0.22218 -1.82874,-0.68806 -2.37558,-2.14987 -3.55791,-2.10855 -2.719,0.095 0.53418,1.40315 0.41665,1.50225 -0.59301,0.5 -1.57821,-1.56662 -9.8026,-1.62807 -13.54415,-0.1012 -2.54072,1.03683 -1.79168,1.27243 7.6849,2.41715 13.32944,1.61012 22.89116,4.59582 26.99492,8.42931 8.77349,8.19566 -5.69096,7.80345 -16.50018,-0.44741 -3.93404,-3.00292 -5.30067,-3.5384 -7.40926,-2.9031 -1.42202,0.42844 -4.94836,0.6753 -7.83633,0.54856 -4.46204,-0.1958 -7.64679,0.74859 -21.19993,6.28658 -30.37545,12.4118 -40.43995,13.92595 -54.04922,8.13142 -3.575,-1.52216 -8.3,-3.22712 -10.5,-3.78881 -4.48689,-1.14555 -21.36102,-0.40809 -26,1.13629 -2.33609,0.77772 -1.45087,0.87778 4,0.45216 9.24012,-0.72151 19.49398,1.00488 27.5,4.63003 3.575,1.61877 9.425,3.84473 13,4.94658 6.69481,2.06342 9.79467,3.5675 8.97104,4.35284 -0.25907,0.24702 -9.69604,-2.21846 -20.97104,-5.47885 -17.2344,-4.98367 -21.85403,-5.95073 -29,-6.07078 -7.52541,-0.12642 -9.30921,0.21582 -15.55768,2.98497 -7.95218,3.52418 -14.28586,5.19597 -19.44232,5.13184 -2.8769,-0.0358 -2.16479,-0.44437 4,-2.29511 4.125,-1.23838 8.175,-2.48603 9,-2.77256 0.825,-0.28654 -3.34395,-0.30846 -9.26434,-0.0487 -8.14387,0.35728 -12.5258,0.0455 -18,-1.28063 -11.39873,-2.7614 -27.24216,-9.29064 -32.94883,-13.57855 -2.8714,-2.15753 -6.71576,-4.20325 -8.54302,-4.54605 -5.10189,-0.95712 -47.16018,0.29211 -52.24381,1.55176 -7.87778,1.952 -14.96439,5.41056 -14.98293,7.31228 -0.0233,2.38493 2.47873,2.19806 8.57467,-0.64044 5.80215,-2.7017 18.05704,-4.60956 29.60887,-4.60956 9.36587,0 33.52531,2.79884 36.13504,4.18619 3.28155,1.74451 1.17739,1.81363 -6.40322,0.21033 -5.17095,-1.09365 -13.67,-1.62133 -27.93243,-1.73423 l -20.5,-0.1623 -10,3.37078 c -5.5,1.85393 -10.675,3.65325 -11.5,3.9985 -0.825,0.34524 -5.325,0.62839 -10,0.62922 l -8.5,0.002 0.32721,3.5 c 0.17997,1.925 1.00247,4.55009 1.82778,5.83353 1.69791,2.6404 7.00806,5.16647 10.86064,5.16647 1.50793,0 3.6029,1.10387 5.04205,2.65674 2.69617,2.90922 2.52665,4.4597 -0.24444,2.23576 -1.22757,-0.98518 -1.08632,-0.46692 0.48291,1.77181 1.59413,2.27425 1.86441,3.28762 0.96093,3.60271 -0.84223,0.29373 -0.169,1.80706 2.04004,4.5857 1.81342,2.281 3.16342,4.11057 3,4.06571 -0.16341,-0.0449 -1.82123,-0.7463 -3.68403,-1.55874 z m 203.88691,-36.85969 c 3.03034,-1.7323 4.35529,-1.88389 3.43379,-0.39287 -0.88887,1.43823 2.4487,0.41478 9.06621,-2.78011 4.44638,-2.14668 4.73861,-2.1877 2.63922,-0.37049 -3.20745,2.77633 -2.17257,2.57599 5.1393,-0.99494 l 6.22148,-3.03842 -3,2.6365 -3,2.6365 4.5,-0.64975 c 2.475,-0.35736 6.525,-1.86371 9,-3.34746 2.475,-1.48374 5.54369,-3.14799 6.81932,-3.69834 1.5681,-0.67652 -18.83746,-0.89126 -63,-0.66297 -62.07381,0.32087 -65.46838,0.43182 -68.31932,2.23315 -3.35231,2.11811 -2.63703,2.40248 2.40544,0.95632 l 3.39223,-0.97288 -2.39883,2.59575 -2.39884,2.59575 4.5,-2.17601 4.5,-2.17601 -3.26578,3.05314 c -4.01352,3.7522 -3.44204,3.88082 1.80755,0.4068 4.59114,-3.03827 6.40009,-2.63299 2.37603,0.53234 -1.47813,1.1627 -2.20339,2.114 -1.61168,2.114 0.59172,0 1.35247,-0.44758 1.69056,-0.99462 0.33809,-0.54704 1.60214,-1.51252 2.80901,-2.14551 l 2.19431,-1.15089 -2,2.29102 -2,2.29102 2.11852,-1.11033 c 1.16518,-0.61068 2.36086,-0.86797 2.65707,-0.57177 0.2962,0.2962 1.90802,-0.16963 3.58182,-1.03518 4.35527,-2.2522 5.44668,-1.96748 3.55063,0.92626 -2.1571,3.29215 -1.23556,3.15365 4.41178,-0.66306 4.44712,-3.00555 4.55946,-3.03045 2.25587,-0.5 -3.0663,3.36827 -2.14667,3.36164 3.74624,-0.027 4.244,-2.44046 4.50131,-2.48686 2.77308,-0.5 -2.36646,2.7206 -1.61935,2.75329 3.47912,0.15225 2.19696,-1.1208 4.39448,-1.7906 4.8834,-1.48843 0.48891,0.30216 2.57428,-0.44499 4.63415,-1.66035 4.0562,-2.39321 4.19007,-2.12222 1.81989,3.68389 -0.80358,1.9685 -0.77461,1.9706 2.00967,0.14627 1.55375,-1.01806 2.51804,-1.35434 2.14287,-0.74729 -0.91953,1.48783 0.4078,1.33475 3.43589,-0.39627 3.27489,-1.87209 4.5537,-1.87209 3,0 -1.62284,1.9554 -0.0493,1.92328 2.77749,-0.0567 2.02678,-1.41962 2.22251,-1.41188 2.22251,0.0879 0,1.35985 0.73588,1.5434 4.25,1.06011 3.25073,-0.44706 3.77976,-0.34593 2.25,0.43014 -1.47678,0.74919 -0.36495,0.88311 4.25,0.51193 6.30051,-0.50677 7.29024,-0.0339 5,2.38904 -1.03117,1.0909 -0.86005,1.12186 0.97749,0.17686 1.86815,-0.96074 2.13321,-0.89983 1.64302,0.37759 -0.73516,1.91579 1.30084,1.92597 4.62949,0.0231 z m -93,-9.5 c 1.23573,-0.79859 1.14764,-0.95451 -0.5,-0.88501 -1.1,0.0464 -3.125,0.44466 -4.5,0.88501 -2.44987,0.78459 -2.43984,0.80233 0.5,0.88501 1.65,0.0464 3.675,-0.35185 4.5,-0.88501 z m 99.50767,-5.66491 c 15.85818,-0.3657 27.91529,-1.00441 26.79358,-1.41935 -1.12171,-0.41495 -9.21152,-2.20307 -17.97736,-3.9736 l -15.93788,-3.21915 -3.94301,1.88851 c -5.36555,2.56983 -24.82177,2.5904 -39.443,0.0417 -8.84781,-1.54231 -13.32798,-1.72051 -28.47237,-1.13246 -17.10952,0.66435 -22.52763,1.44142 -22.52763,3.23094 0,0.44064 1.894,0.62055 4.20888,0.39979 2.31489,-0.22076 10.52739,0.35608 18.25,1.28186 31.34126,3.75717 35.43636,3.90749 79.04879,2.90176 z m -17.02056,-9.17475 c 8.8139,-2.93573 10.92066,-5.42879 5.50319,-6.51228 -1.7075,-0.3415 -6.70063,-2.20202 -11.09586,-4.13448 -8.21271,-3.61092 -16.36367,-4.94186 -12.5443,-2.04831 1.17138,0.88743 1.55176,1.88444 1.03684,2.71759 -0.44731,0.72377 -0.67789,2.60672 -0.51241,4.18434 l 0.30088,2.8684 -3.63385,-2.77167 c -2.80804,-2.14179 -3.90412,-2.50141 -4.82308,-1.58245 -2.32026,2.32026 1.2661,6.38536 7.30365,8.27861 7.18847,2.25414 8.98837,2.15669 18.46494,-0.99975 z m -38.70193,-9.86459 c 1.49315,-0.93734 4.44063,-3.22078 6.54996,-5.07432 2.16247,-1.90023 4.45222,-3.11958 5.25,-2.79575 0.77817,0.31588 2.08986,0.84746 2.91486,1.18131 0.825,0.33384 1.5,0.0947 1.5,-0.53139 0,-1.94768 -3.09503,-2.44301 -6.82877,-1.09287 -1.96725,0.71136 -6.71325,1.63768 -10.54667,2.05848 -5.60705,0.6155 -7.31378,1.22105 -8.72882,3.097 -0.96742,1.28255 -1.62041,2.47045 -1.45108,2.63979 0.16934,0.16933 2.69924,-0.60077 5.62201,-1.71133 2.92277,-1.11057 5.53022,-1.80312 5.79434,-1.539 0.26411,0.26412 -0.57501,1.60344 -1.86471,2.97627 -2.72964,2.90557 -2.05439,3.20446 1.78888,0.79181 z m 45.56031,-15.97458 c 0.37336,-0.37335 -1.46414,-1.94068 -4.08333,-3.48294 -2.61919,-1.54227 -4.31216,-2.83169 -3.76216,-2.86537 0.55,-0.0337 -0.8,-0.99491 -3,-2.13605 -2.2,-1.14114 -4.8562,-2.80875 -5.90267,-3.70581 -1.82972,-1.56846 -1.87774,-1.49679 -1.25248,1.869 0.37702,2.02955 1.91824,4.65535 3.66844,6.25 4.10016,3.73574 5.62448,3.46877 2.85495,-0.5 -2.09728,-3.00541 -1.91594,-2.93016 2.40956,1 4.36299,3.96422 7.45636,5.1825 9.06769,3.57117 z m -19.78446,-15.02271 c -1.00056,-2.60742 -1.71753,-0.75987 -0.90557,2.33354 0.555,2.11443 0.85276,2.39284 1.13324,1.05959 0.20925,-0.99463 0.1068,-2.52154 -0.22767,-3.39313 z m 38.24584,-0.82492 c -0.30789,-0.30789 -0.86705,0.24711 -1.24258,1.23333 -0.54268,1.4252 -0.42782,1.54006 0.5598,0.5598 0.68342,-0.67834 0.99067,-1.48524 0.68278,-1.79313 z m 29.81682,-17.52057 c 1.51464,-0.57586 3.36945,-1.92586 4.1218,-3 0.75236,-1.07413 2.1299,-1.94296 3.06121,-1.93073 1.32414,0.0174 1.14827,0.44856 -0.8067,1.97776 -2.84237,2.22333 -2.11152,2.43639 3.25,0.94742 3.52991,-0.9803 5.30283,-3.84064 2.5,-4.03337 -0.6875,-0.0473 0.1,-0.49511 1.75,-0.9952 1.65,-0.50008 3.62591,-0.67619 4.3909,-0.39136 2.16131,0.80472 5.94796,-2.20395 9.1718,-7.2874 2.67123,-4.2121 2.9373,-5.42176 2.9373,-13.35408 0,-10.20749 -0.56266,-12.49386 -2.64864,-10.76265 -1.19458,0.99141 -1.25815,0.76167 -0.40796,-1.47448 0.96873,-2.54796 -0.11946,-3.79106 -1.4434,-1.64888 -0.33992,0.55 -1.13148,1 -1.75902,1 -0.82185,0 -0.80535,-0.33563 0.059,-1.2 1.86322,-1.86322 1.41436,-2.98509 -0.73426,-1.83518 -2.71782,1.45453 -2.95435,1.32952 -2.29871,-1.21482 0.53639,-2.08155 0.4405,-2.1377 -1.28085,-0.75 -2.01493,1.62439 -2.02186,1.86085 0.10105,-3.44852 0.73001,-1.82572 0.58452,-1.80997 -2.30843,0.25 -4.03033,2.86985 -4.88957,2.77961 -2.87076,-0.30148 2.08979,-3.18942 1.32225,-3.1588 -2.97476,0.11869 -3.66092,2.79232 -4.78523,1.91479 -1.43328,-1.11869 2.54299,-2.30137 2.62461,-4.19549 0.10221,-2.37197 -1.04378,0.75458 -3.40628,2.46438 -5.25,3.79954 l -3.35221,2.42757 2.10123,-2.42757 c 3.73763,-4.31811 3.88042,-5.48904 0.34835,-2.85671 -5.75638,4.29003 -6.44454,4.43835 -3.98872,0.8597 2.02761,-2.95466 1.62132,-2.73694 -2.92879,1.56944 -4.78715,4.53072 -5.22469,4.75062 -4.66179,2.3429 0.34165,-1.4614 0.88939,-3.35602 1.21719,-4.21025 0.90086,-2.3476 -2.45011,-1.36658 -10.27027,3.0067 l -6.72905,3.7631 2.38897,-3.95123 c 2.34024,-3.87061 2.26435,-3.83392 -3.71984,1.79878 -3.35984,3.1625 -6.53762,5.75 -7.06172,5.75 -1.08242,0 -2.84784,4.05121 -3.70411,8.5 l -0.57741,3 1.46176,-3 1.46176,-3 0.15151,4 c 0.11593,3.06098 0.33604,3.53049 0.93758,2 0.81276,-2.06788 1.07099,-1.14115 2.71676,9.75 0.65028,4.30334 0.61336,4.28309 3.89177,2.13499 1.51376,-0.99185 2.46482,-1.18478 2.46482,-0.5 0,0.61326 1.0125,1.12125 2.25,1.12888 1.73156,0.0107 1.27072,0.51522 -2,2.18968 -2.3375,1.1967 -4.25,2.68126 -4.25,3.29904 0,1.35595 4.65104,5.81677 7.69661,7.38183 1.68594,0.86638 2.38338,0.83251 3,-0.14565 0.44186,-0.70095 2.74219,-1.77343 5.11184,-2.38329 l 4.30846,-1.10882 -2.28635,2.4337 c -1.3798,1.46873 -3.01165,2.24404 -4.11556,1.95536 -3.66386,-0.95812 -0.99385,1.86354 2.86515,3.02788 5.04316,1.52162 6.67855,1.56874 10.04354,0.28937 z m 9.37631,-18.95297 c -5.78533,-5.78533 2.36674,-15.48265 10.41821,-12.39301 0.86999,0.33384 1.58179,1.23384 1.58179,2 0,0.76615 0.45,1.39301 1,1.39301 1.78301,0 1.05767,5.65696 -1.07258,8.36514 -2.64428,3.36165 -8.86929,3.69299 -11.92742,0.63486 z m 10.85361,-5.13721 c 1.60883,-2.57613 0.32736,-4.16716 -2.97806,-3.69745 -2.64142,0.37534 -3.6433,3.20465 -1.88501,5.32326 1.42181,1.71318 3.13567,1.14021 4.86307,-1.62581 z m -42.85361,7.56684 c 0,-0.275 -0.9,-0.0183 -2,0.57037 -1.1,0.5887 -2,1.29537 -2,1.57037 0,0.275 0.9,0.0183 2,-0.57037 1.1,-0.5887 2,-1.29537 2,-1.57037 z m -100,135.12753 c 0,-0.24356 0.95579,-2.06278 2.12397,-4.0427 1.16818,-1.97992 1.93671,-3.78712 1.70783,-4.01599 -0.22887,-0.22887 -2.87215,0.67998 -5.87396,2.01967 -5.21346,2.32674 -5.33393,2.33796 -2.69049,0.25062 1.52205,-1.20185 5.12205,-3.13116 8,-4.28736 3.82375,-1.53617 5.9783,-3.2115 8.002,-6.22219 3.39096,-5.04478 7.79481,-7.83739 13.73065,-8.707 11.66753,-1.70933 10.89773,-1.686 7.02569,-0.21288 -3.3177,1.26223 -2.90201,1.36902 9.22237,2.36926 11.71262,0.96627 13.08634,1.2975 17.72431,4.27368 2.76519,1.77442 5.02763,3.41288 5.02763,3.64103 0,0.22814 -1.2375,0.12536 -2.75,-0.2284 -2.49957,-0.58462 -2.24914,-0.1144 2.75,5.16359 3.025,3.19373 4.375,5.05567 3,4.13764 -4.40084,-2.93827 -14.66439,-8.69613 -15.50109,-8.69613 -0.44489,0 0.0484,0.96548 1.0961,2.14551 1.90166,2.14176 1.90082,2.14332 -0.48329,0.89081 -1.31355,-0.69008 -3.56355,-1.39359 -5,-1.56336 -1.43644,-0.16977 -5.17236,-0.63082 -8.30204,-1.02456 -3.53676,-0.44495 -7.49641,-0.26111 -10.46253,0.48577 -6.6186,1.66658 -19.1101,7.562 -23.53851,11.1091 -3.51831,2.81812 -4.80864,3.49269 -4.80864,2.51389 z m 148.9357,-3.24142 c 1.50764,-3.09412 1.4309,-5.08234 -0.1357,-3.51574 -1.45112,1.45112 -3.16536,1.60018 -2.3,0.2 0.33992,-0.55 0.15332,-1 -0.41467,-1 -0.56798,0 1.01594,-2.04864 3.51983,-4.55253 3.49407,-3.49407 4.29794,-4.8593 3.4575,-5.87197 -1.55706,-1.87615 2.6229,-3.41307 12.20506,-4.48766 4.2622,-0.47799 8.87059,-1.60367 10.24087,-2.50151 3.28148,-2.15011 3.28818,-6.77606 0.0175,-12.08633 -2.77369,-4.50335 -3.17276,-8.23337 -1.17341,-10.96764 1.27983,-1.75027 1.47689,-1.6819 3.65903,1.2696 1.26849,1.71573 2.68478,2.88562 3.14732,2.59976 1.38415,-0.85546 0.96682,-2.20656 -1.34759,-4.36276 -2.37288,-2.21068 -1.82303,-2.65071 1.2543,-1.00378 1.72489,0.92314 1.93426,2.17829 1.93426,11.59563 0,13.24809 -1.11767,15.16761 -11.67053,20.04333 -7.48664,3.45904 -9.29334,4.85686 -4.82947,3.7365 3.71455,-0.93229 3.02515,0.3431 -1.12212,2.07594 -4.10053,1.71331 -10.83581,2.06339 -9.87788,0.51342 0.33992,-0.55 -0.28197,-1 -1.38197,-1 -1.1,0 -2.27811,0.45 -2.61803,1 -0.33992,0.55 0.0835,1 0.94098,1 2.47148,0 1.82254,2.6876 -1.50528,6.23422 -2.12918,2.26917 -2.73952,2.59922 -2,1.08152 z M 103.90817,403.17042 c -2.6575,-5.13903 -4.855516,-14.47674 -4.386726,-18.63584 0.713986,-6.33446 7.417346,-19.14816 12.125356,-23.17805 7.61183,-6.51544 24.26513,-9.83118 37.2722,-7.42106 7.47919,1.38584 20.26806,5.60614 21.86671,7.21595 0.66987,0.67456 0.33975,0.82154 -1,0.44523 -12.45105,-3.49722 -21.15288,-5.05613 -28.5,-5.10569 l -8.5,-0.0573 -9.90616,6 c -11.0754,6.70818 -12.65497,8.63291 -15.8445,19.30672 -1.50964,5.05202 -2.38202,6.7492 -2.8271,5.5 -0.45478,-1.27642 -0.856,-0.56611 -1.36695,2.42 -0.5873,3.43234 -0.23758,5.2875 1.86074,9.87084 2.9321,6.4045 2.93157,6.4024 1.60965,6.4024 -0.53588,0 -1.61733,-1.24344 -2.40322,-2.7632 z m 350.36378,-14.75145 c -1.29524,-1.37871 -2.61083,-2.09277 -2.92355,-1.58679 -0.92625,1.49871 -4.6735,-2.21163 -5.47976,-5.4258 l -0.74571,-2.97276 2.7056,2.5 c 2.67055,2.46761 2.69664,2.47085 2.014,0.25 -0.85915,-2.79512 0.3932,-2.86375 3.77114,-0.20667 2.32269,1.82703 4.67682,8.28522 3.46269,9.49936 -0.24719,0.24718 -1.50917,-0.67862 -2.80441,-2.05734 z m 20.74908,-16.15594 c 0.49108,-7.64557 -1.66258,-11.81776 -8.15918,-15.80638 -4.81595,-2.95678 -5.19675,-3.02097 -17.37579,-2.92918 -11.0426,0.0832 -12.15949,-0.0594 -9.86813,-1.25993 1.42108,-0.74458 5.32496,-2.05604 8.67528,-2.91435 7.19673,-1.84372 17.75102,-0.70821 21.9608,2.3627 5.6088,4.09145 8.95236,17.67394 5.82163,23.64914 -1.36361,2.60254 -1.41189,2.46051 -1.05461,-3.102 z m -259.23532,-2.32941 c 0.33992,-0.55 1.06803,-1 1.61803,-1 0.55,0 0.72189,0.45 0.38197,1 -0.33992,0.55 -1.06803,1 -1.61803,1 -0.55,0 -0.72189,-0.45 -0.38197,-1 z m 4,-10.65885 c -1.65,-0.86832 -4.125,-2.6008 -5.5,-3.84994 -1.375,-1.24915 -4.3,-3.21055 -6.5,-4.35867 -5.73282,-2.9918 -6.84833,-4.04339 -10.38303,-9.78801 -1.85169,-3.00938 -4.08515,-5.34962 -5.38952,-5.6472 -1.2251,-0.27949 -5.82745,-0.17401 -10.22745,0.2344 -4.4,0.40841 -8.17491,0.60344 -8.38869,0.4334 -1.24091,-0.98706 6.43873,-2.67182 12.58485,-2.76087 l 7.19616,-0.10426 -0.58667,-4.5 c -0.78794,-6.04375 -3.16564,-10.79859 -4.44833,-8.89562 -0.78609,1.16622 -0.90794,1.14906 -0.7413,-0.10438 0.20833,-1.56707 -0.61444,-4.28698 -2.18902,-7.23643 -0.50985,-0.95504 -0.927,-2.3537 -0.927,-3.10815 0,-1.48652 -4.22955,-1.53006 -11.5,-0.11838 -3.78823,0.73555 -3.92059,0.68031 -2.5,-1.04349 1.43856,-1.74561 1.09302,-1.79359 -8.43539,-1.17147 -14.21511,0.92812 -10.96496,-0.98137 4.8116,-2.82686 7.93258,-0.92792 13.30237,-2.03094 14.18526,-2.91383 1.09013,-1.09014 1.13192,-1.53734 0.1796,-1.92209 -0.68259,-0.27577 -0.15013,-0.53693 1.18324,-0.58035 l 2.42432,-0.0789 -2.28881,-2.43632 c -2.25671,-2.40217 -2.25895,-2.42851 -0.15945,-1.87948 1.66339,0.43498 1.99328,0.20222 1.5075,-1.06368 -0.57123,-1.48861 -1.73609,-2.04238 -3.65787,-1.73894 -0.4125,0.0651 -0.75,-0.58563 -0.75,-1.44614 0,-0.86051 -1.35,-2.70051 -3,-4.08889 -1.65,-1.38839 -3,-2.98944 -3,-3.55789 0,-0.61747 0.60386,-0.53239 1.5,0.21134 0.9996,0.8296 1.5,0.8787 1.5,0.1472 0,-0.7767 0.78188,-0.80043 2.67372,-0.0812 1.47055,0.5591 3.89384,0.74857 5.3851,0.42103 2.22065,-0.48774 3.15954,-0.0229 5.18771,2.56867 l 2.47634,3.16418 0.48456,-7.55045 c 0.29585,-4.61002 1.12869,-8.53352 2.13856,-10.07478 0.90971,-1.38838 1.65401,-3.26912 1.65401,-4.17942 0,-1.48626 -1.19852,-1.58306 -11.75,-0.94907 -11.02685,0.66255 -11.62691,0.60397 -9.75,-0.95186 1.93196,-1.60145 1.88774,-1.63891 -1.29971,-1.10116 -2.04257,0.3446 -3.0678,0.18145 -2.69098,-0.42825 0.3348,-0.54172 1.36967,-0.99925 2.29971,-1.01674 1.47923,-0.0278 1.44791,-0.21566 -0.25015,-1.5 -1.72503,-1.30475 -1.74937,-1.4682 -0.21861,-1.4682 0.94738,0 1.9561,-0.60871 2.24159,-1.3527 0.28549,-0.74398 2.85887,-2.40739 5.71861,-3.69646 2.85975,-1.28906 6.32454,-3.35648 7.69954,-4.59425 1.375,-1.23777 4.3,-2.99645 6.5,-3.90817 l 4,-1.65767 -2.5,2.76587 c -1.375,1.52124 -1.868,2.39881 -1.09556,1.95016 0.77244,-0.44864 2.42471,-0.92771 3.67171,-1.0646 1.247,-0.13688 3.76501,-0.5736 5.59556,-0.97048 l 3.32829,-0.72159 -1.90499,2.12494 c -2.24651,2.50591 -1.17737,2.68405 3.75075,0.62495 5.05294,-2.11125 5.61732,-1.82007 2.15424,1.11144 l -3,2.53952 5.21676,-2.57548 c 6.23135,-3.07638 7.16142,-3.20334 4.86324,-0.66388 -1.67842,1.85463 -1.63088,1.88864 1.59501,1.14101 1.82875,-0.42383 5.01249,-1.48609 7.07499,-2.36058 2.0625,-0.87449 3.75,-1.21108 3.75,-0.74799 0,0.46309 -0.73941,1.12572 -1.64313,1.47251 -0.90372,0.34679 -1.39733,0.87633 -1.0969,1.17675 0.30042,0.30042 2.49855,-0.44978 4.88473,-1.66712 3.8194,-1.94851 4.16004,-1.99199 2.84691,-0.36339 -1.17318,1.45504 -0.6377,1.33043 2.50839,-0.58367 l 4,-2.43363 -1.77305,2.72726 c -2.04416,3.14425 -1.75287,3.22963 4.08345,1.19681 3.20341,-1.11576 4.74432,-1.22104 6,-0.40994 1.50971,0.97519 1.48822,1.02768 -0.20184,0.49299 -1.61701,-0.51157 -1.70406,-0.3726 -0.59992,0.9578 0.71034,0.85591 1.78649,1.38877 2.39145,1.18413 0.60495,-0.20465 2.67491,0.2497 4.59991,1.00965 l 3.5,1.38172 -2.5,-2.02072 c -3.00423,-2.42828 -2.03343,-2.65096 2.14259,-0.49145 3.6551,1.89012 4.4447,1.39551 2.77471,-1.73809 -1.17577,-2.20624 -1.13871,-2.25517 0.66898,-0.8831 1.05255,0.7989 2.92622,2.33984 4.16372,3.42431 l 2.25,1.97177 0,-2.7813 c 0,-2.13352 0.371,-2.63894 1.5929,-2.17005 3.99315,1.53231 6.4071,1.76951 6.4071,0.62957 0,-0.76269 1.16698,-0.48739 3.25,0.76669 3.49127,2.10192 4.91098,1.94689 8.63486,-0.94287 2.68179,-2.08109 4.60624,-2.45431 3.51011,-0.68073 -0.46352,0.74999 -0.21549,0.9639 0.69099,0.59593 0.77772,-0.3157 2.20154,-0.89032 3.16404,-1.27692 1.23228,-0.49498 1.75,-0.22752 1.75,0.90406 0,2.01767 1.37362,2.06666 3,0.10699 2.01073,-2.42279 3,-1.74442 3,2.05718 0,5.18078 -1.94718,12.08504 -3.90901,13.86047 -1.10667,1.00153 -4.83309,1.78797 -10.64679,2.24696 -5.27649,0.41657 -7.94944,0.94897 -6.51834,1.29834 3.35281,0.81851 3.61088,2.47147 0.60004,3.8433 -3.13241,1.42722 -3.325,3.18165 -0.2759,2.51338 1.64857,-0.36131 1.88396,-0.23396 0.8806,0.47644 -1.06985,0.75746 -0.52296,1.56152 2.5,3.67566 2.33293,1.63156 3.00563,2.45492 1.69411,2.07351 -2.09541,-0.60936 -2.18721,-0.32224 -2.5,7.81892 -0.17859,4.64834 -0.0534,8.28236 0.27814,8.07561 0.33156,-0.20675 0.67742,3.88627 0.76856,9.09561 0.2314,13.22554 -0.32733,14.20377 -17.45888,30.56723 -3.80189,3.63143 -8.20021,6.9151 -9.77405,7.29704 -1.57383,0.38194 -4.32697,2.24826 -6.11807,4.14739 -1.79111,1.89913 -4.07512,3.45296 -5.07558,3.45296 -3.17026,0 3.28556,-5.72789 10.06717,-8.93205 6.37169,-3.01048 11.2064,-7.06551 6.73016,-5.64481 -3.60641,1.14463 -2.58765,-0.19841 2.00784,-2.64696 l 4.25,-2.26447 -3.34354,-0.32619 c -2.09339,-0.20423 -4.02686,0.29221 -5.17109,1.32772 -1.00515,0.90965 -5.12556,3.43928 -9.15646,5.6214 -4.0309,2.18213 -6.42891,3.74089 -5.32891,3.46392 6.60526,-1.66315 7.75198,-1.81528 7.22225,-0.95816 -1.42917,2.31243 -10.22115,5.49514 -17.8802,6.47265 -4.58813,0.58557 -9.91705,1.31889 -11.84205,1.6296 l -3.5,0.56494 4,1.26935 c 2.2,0.69815 6.76051,1.30394 10.13448,1.34621 l 6.13447,0.0768 -3.65636,4 c -2.4474,2.67742 -4.47573,3.98134 -6.13447,3.94356 -2.16654,-0.0494 -2.05102,-0.20652 0.91875,-1.25 1.92533,-0.67651 3.75249,-2.16827 4.21778,-3.44356 0.74644,-2.04592 0.52905,-2.24205 -2.39687,-2.16239 -1.76978,0.0482 -5.46778,0.43805 -8.21778,0.86638 l -5,0.77878 7.5,0.27442 7.5,0.27441 -5.5,0.66975 c -3.025,0.36837 -7.3,0.34406 -9.5,-0.054 -5.48674,-0.99279 -5.6196,-0.30573 -0.3989,2.06294 3.54981,1.61057 3.91634,1.99232 1.8989,1.97773 -1.375,-0.01 -3.85,-0.72852 -5.5,-1.59685 z m -0.35284,-6.87078 c -2.54588,-2.14222 -14.14716,-7.07229 -14.14716,-6.01197 0,0.36243 10.34364,6.50133 13,7.71544 3.3771,1.54353 3.96627,0.66865 1.14716,-1.70347 z m 3.76951,-4.86527 c -0.84548,-0.80132 -7.91667,-3.48611 -7.91667,-3.0058 0,0.56858 6.03172,3.30242 7.41667,3.36156 0.50416,0.0215 0.72916,-0.13857 0.5,-0.35576 z m 45.13369,-16.89364 c 0.8527,0.19706 3.1027,-0.69489 5,-1.98212 2.73171,-1.85334 3.44759,-3.00593 3.43978,-5.53817 -0.0112,-3.64252 1.67087,-3.74519 2.5187,-0.15374 0.54831,2.3227 0.64644,2.28112 3.52758,-1.49477 2.69942,-3.53773 2.98123,-4.64867 3.16162,-12.4633 l 0.19803,-8.57936 -2.38504,6.5 c -2.12296,5.78577 -3.51825,7.57807 -12.69803,16.31115 -6.60985,6.28821 -9.23577,9.31399 -7.313,8.42659 1.65,-0.76152 3.69766,-1.22334 4.55036,-1.02628 z m -35.49149,-10.24326 c -1.06762,-0.80751 -2.41762,-1.48188 -3,-1.49861 -0.58238,-0.0167 -0.29513,-0.47579 0.63834,-1.02014 1.18591,-0.69158 4.48482,-0.38133 10.95057,1.02984 5.08935,1.11076 9.60893,1.664 10.04352,1.22941 1.2963,-1.2963 -2.1265,-5.2087 -4.55687,-5.2087 -3.78935,0 -5.87606,-2.18907 -5.08629,-5.33577 0.77675,-3.09485 1.71062,-2.81178 1.93414,0.58626 0.11602,1.7638 1.15951,2.55747 4.83285,3.67581 2.57668,0.78447 4.68487,2.02197 4.68487,2.75 0,1.67513 2.79218,1.64524 5.87324,-0.0629 l 2.37324,-1.3157 -2.37324,-0.75486 c -2.20939,-0.70274 -2.23516,-0.78949 -0.37324,-1.25647 1.1,-0.27588 2.5728,-0.96683 3.27289,-1.53544 0.96745,-0.78576 1.11244,-0.61571 0.60423,0.70867 -0.62309,1.62374 -0.46438,1.63686 2.32861,0.19255 3.32097,-1.71734 6.70175,-6.18384 5.79328,-7.65377 -0.32126,-0.51981 0.33504,-1.73211 1.45844,-2.694 2.85308,-2.44288 2.67236,-5.3044 -0.33501,-5.3044 -1.30765,0 -2.93775,-0.675 -3.62244,-1.5 -0.68469,-0.825 -2.11635,-1.5 -3.18146,-1.5 -1.07484,0 -1.65312,-0.45863 -1.29958,-1.03068 0.37709,-0.61014 2.13528,-0.76057 4.30902,-0.36866 4.7465,0.85573 5.70043,1.44982 4.02878,2.50903 -1.10554,0.7005 -1.07902,0.85968 0.14324,0.85968 2.22162,0 3.64447,-1.1939 4.43261,-3.71937 0.56069,-1.79665 0.31476,-2.25 -1.22056,-2.25 -1.30764,0 -2.22673,-1.03969 -2.873,-3.25 -0.90433,-3.09286 -1.15775,-3.23413 -5.24131,-2.9217 l -4.29105,0.3283 0.67611,-3.0783 c 0.62867,-2.86232 0.47759,-3.08305 -2.15334,-3.14598 -2.68325,-0.0642 -2.71823,-0.12151 -0.67691,-1.10933 1.25355,-0.60661 2.32961,-2.24807 2.57651,-3.9303 0.3916,-2.66813 0.29369,-2.77076 -1.28251,-1.34432 -1.56389,1.4153 -1.76459,1.31275 -2.40215,-1.22747 l -0.69568,-2.77181 -1.82873,2.42441 -1.82874,2.42442 -0.37424,-2.44896 c -0.36082,-2.36121 -0.44466,-2.32355 -2.33986,1.05104 l -1.96563,3.5 -0.50576,-4.81011 -0.50576,-4.81011 -3.95295,4.06011 c -2.17412,2.23306 -4.35117,4.06011 -4.8379,4.06011 -0.48672,0 -0.58084,-1.8 -0.20915,-4 0.79449,-4.70254 -0.0454,-5.0214 -3.29263,-1.25 -2.25712,2.62149 -2.34722,2.31426 -0.65986,-2.25 0.4479,-1.21155 -1.35901,-0.0289 -4.58347,3 -3.62179,3.40211 -4.78615,4.13241 -3.64345,2.28518 2.77869,-4.49183 1.91668,-5.13269 -2.51759,-1.87169 -5.06528,3.72504 -6.59219,3.93991 -4.41801,0.62169 2.48363,-3.79049 1.92598,-4.20729 -1.38499,-1.03518 -3.16672,3.03391 -3.73001,2.78918 -1.87761,-0.81574 0.72186,-1.4048 -0.38878,-0.75684 -3.11229,1.81574 -3.77626,3.56698 -4.15279,3.73021 -3.47815,1.50784 0.63392,-2.08821 0.52507,-2.30005 -0.67156,-1.30693 -0.78546,0.65187 -2.49658,3.08631 -3.80249,5.40987 -1.92579,3.42648 -2.0611,4.10442 -0.71614,3.58832 0.91203,-0.34998 1.65824,-0.20045 1.65824,0.33228 0,0.53274 0.7125,0.96862 1.58333,0.96862 2.93323,0 0.79401,2.4969 -2.41034,2.81336 -2.90988,0.28737 -3.17299,0.60801 -3.17299,3.86663 0,3.19687 0.22568,3.49279 2.25,2.9503 1.2375,-0.33164 2.5875,-0.60913 3,-0.61664 0.4125,-0.008 0.75,-0.69526 0.75,-1.52835 0,-2.11078 5.87683,-5.47707 9.56966,-5.48156 5.29696,-0.006 9.61216,7.15137 8.05401,13.35954 -0.79122,3.15247 -5.06603,4.65301 -10.45062,3.66836 -4.58349,-0.83815 -6.80411,-2.29385 -7.67239,-5.02956 -0.31724,-0.99953 -1.28836,-2.09037 -2.15806,-2.42411 -1.62679,-0.62425 -1.5962,1.09582 0.10533,5.92203 0.38781,1.1 -0.38349,0.30833 -1.714,-1.75926 -1.33052,-2.0676 -2.76636,-4.0926 -3.19077,-4.5 -1.25052,-1.20044 0.55738,7.9938 2.20409,11.20906 l 1.51075,2.9498 1.95867,-2.41884 c 1.79342,-2.21478 2.04081,-2.27205 2.93245,-0.67877 0.53559,0.95704 1.39614,1.47905 1.91234,1.16003 0.5162,-0.31903 0.93854,0.3465 0.93854,1.47896 0,2.28324 -1.02003,2.63899 -2.71287,0.94615 -1.77185,-1.77185 -3.48322,-0.12204 -2.25465,2.17356 1.24689,2.32983 2.32466,2.43932 4.32466,0.43931 0.825,-0.825 1.92705,-1.5 2.44899,-1.5 0.52194,0 1.50918,0.675 2.19387,1.5 1.04641,1.26085 0.86664,1.50565 -1.12756,1.53544 l -2.37244,0.0354 2.5,1.50628 c 2.30891,1.39114 2.32802,1.45972 0.25,0.89718 -3.03595,-0.82187 -2.84243,0.9145 0.38486,3.45309 3.27628,2.57713 5.36514,2.65306 5.36514,0.19502 0,-1.03265 0.675,-2.43775 1.5,-3.12244 0.825,-0.68469 1.5,-1.83823 1.5,-2.56343 0,-1.88018 1.98146,-2.85511 3.24161,-1.59496 0.75647,0.75647 0.14856,1.92564 -2.08713,4.01408 -1.73496,1.6207 -3.15448,3.46319 -3.15448,4.09441 0,0.63123 1.9125,2.0158 4.25,3.07683 5.04041,2.28793 7.01815,2.49046 4.30887,0.44127 z m 15.68327,-9.31855 c -0.79974,-0.49427 -0.55087,-1.10026 0.79775,-1.94249 1.6083,-1.0044 1.96011,-0.96395 1.96011,0.22535 0,1.85128 -1.2657,2.63935 -2.75786,1.71714 z m 9.83681,-1.56632 c -0.0434,-1.05416 0.19292,-1.64479 0.52522,-1.3125 0.33229,0.33229 0.36781,1.19479 0.0789,1.91667 -0.31922,0.79773 -0.55618,0.56078 -0.60416,-0.60417 z m 0.6305,-4.58641 c -0.32287,-1.23464 -1.79215,-2.09928 -4.34854,-2.55903 -5.01735,-0.90232 -7.79843,-2.36458 -4.57879,-2.40748 2.56634,-0.0342 7.75906,2.0227 10.60818,4.20203 1.62217,1.24081 1.6716,1.52983 0.34854,2.03754 -0.98267,0.37708 -1.7186,-0.0846 -2.02939,-1.27306 z m -25.52195,13.31997 c -0.72188,-0.28887 -1.58438,-0.25335 -1.91667,0.0789 -0.33229,0.33229 0.25834,0.56864 1.3125,0.52522 1.16495,-0.048 1.4019,-0.28494 0.60417,-0.60416 z m -8.734,-27.05631 c 1.47666,-3.8481 -1.9834,-7.11772 -5.52594,-5.22181 -2.36394,1.26514 -2.54299,5.51744 -0.28553,6.78078 2.12646,1.19002 5.0584,0.40351 5.81147,-1.55897 z m 52.5465,-4.76058 c 0,-1.83333 -0.53333,-2.5 -2,-2.5 -2.43319,0 -2.51708,0.77115 -0.34501,3.17126 2.1468,2.37219 2.34501,2.31546 2.34501,-0.67126 z m -7.01369,-5.99292 c 1.58785,-0.82111 3.64243,-1.20304 4.56574,-0.84873 1.7954,0.68895 1.63938,-0.7104 -0.78121,-7.00683 l -1.09506,-2.84848 -1.30246,2.34848 c -1.202,2.16736 -1.3106,2.19424 -1.40817,0.34848 -0.10572,-2 -0.10572,-2 -0.96515,0 -0.79008,1.83861 -0.86779,1.79826 -0.96298,-0.5 l -0.10356,-2.5 -2.03455,2.44454 -2.03455,2.44454 2.04162,1.55546 c 1.48505,1.13142 1.78032,1.96438 1.08313,3.05546 -2.07425,3.24615 -1.20805,3.6817 2.9972,1.50708 z m -81.25714,46.88875 c -0.40105,-0.40104 -0.70065,-1.89166 -0.66578,-3.3125 l 0.0634,-2.58333 0.96518,2.41432 c 1.0401,2.60175 0.82469,4.66899 -0.36278,3.48151 z m 86.77083,-82.87397 -5,-2.3554 3.58333,-0.0832 c 1.97084,-0.0458 3.87767,-0.37756 4.2374,-0.73729 0.35974,-0.35974 3.92224,-0.5765 7.91667,-0.48169 3.99443,0.0948 7.9376,-0.27897 8.7626,-0.83062 1.1751,-0.78576 0.87185,-1.00632 -1.40009,-1.01832 -3.94083,-0.0208 -13.90656,-5.10866 -12.5884,-6.42682 0.88882,-0.88882 26.04966,-0.98824 67.98849,-0.26865 5.775,0.0991 12.975,-0.1163 16,-0.47864 5.19952,-0.62282 5.3361,-0.58455 2.5,0.70046 -2.65505,1.20298 -1.50523,1.30009 10,0.84456 10.96328,-0.43407 12.68666,-0.30883 11,0.79936 -1.41124,0.92723 -7.74036,1.44811 -21.5,1.76942 -12.22165,0.2854 -17.63376,0.69339 -14.5,1.09308 3.02731,0.38611 -1.57624,0.6997 -11.66821,0.79482 -9.16752,0.0864 -17.43487,0.45129 -18.37189,0.81086 -1.50743,0.57846 -1.43046,0.87336 0.66821,2.56019 l 2.37189,1.90644 -3.25,-1.58588 c -3.2672,-1.59426 -4.28281,-0.96732 -2.05,1.26549 1.70686,1.70686 -0.42112,1.49999 -2.75887,-0.2682 -2.78202,-2.10421 -3.68963,-1.86464 -2.35852,0.62256 l 1.15298,2.15436 -3.61768,-2.23585 c -3.24708,-2.00681 -3.5491,-2.04823 -2.94823,-0.40436 0.63965,1.74995 0.58048,1.75358 -1.32886,0.0815 -2.05997,-1.80405 -4.34082,-2.32639 -4.34082,-0.99415 0,1.034 -4.57594,2.94424 -10,4.17453 -7.11279,1.61332 -13.04379,1.16175 -18.5,-1.40856 z m 82,-0.003 -6,-1.26279 7.5,-0.0964 c 5.17221,-0.0665 8.10247,0.35927 9.44113,1.37178 1.82381,1.37946 1.73315,1.46161 -1.5,1.3592 -1.89262,-0.0599 -6.14113,-0.67725 -9.44113,-1.37178 z m 11.25,-2.1815 c 0.6875,-0.27741 1.8125,-0.27741 2.5,0 0.6875,0.27741 0.125,0.50439 -1.25,0.50439 -1.375,0 -1.9375,-0.22698 -1.25,-0.50439 z m -133.75,-13.63725 c -1.375,-0.64049 -3.09464,-1.73503 -3.82143,-2.43232 -1.38014,-1.32412 -2.89664,-1.59471 -7.33289,-1.30842 -1.45988,0.0942 -4.83488,-0.91873 -7.5,-2.25098 -6.88492,-3.44166 -9.34884,-3.84142 -16.99885,-2.75805 -3.72402,0.52739 -6.93388,0.79594 -7.13304,0.59679 -0.19915,-0.19916 2.10303,-1.07873 5.11597,-1.95462 6.54499,-1.90268 13.71035,-1.98528 40.05777,-0.46181 21.52487,1.24462 44.67914,0.26547 66.11247,-2.79576 17.08363,-2.43999 43.26054,-2.25146 58,0.41771 24.71625,4.47588 33.47686,5.45188 38.40116,4.2782 2.52936,-0.60286 7.07384,-1.00183 10.09884,-0.88661 3.025,0.11522 6.625,-0.11154 8,-0.50391 2.39333,-0.68296 2.38266,-0.64647 -0.25,0.85507 -1.5125,0.86266 -2.75,2.0041 -2.75,2.53654 0,0.53243 1.2375,0.99658 2.75,1.03145 2.73757,0.0631 2.73931,0.0677 0.38529,1.0102 -3.18153,1.27388 -32.81691,-0.40985 -45.4312,-2.58117 -9.80825,-1.68831 -16.63942,-1.38247 -13.65194,0.61121 0.95567,0.63776 -4.33114,0.91471 -15.55215,0.8147 -9.35,-0.0833 -30.275,0.15382 -46.5,0.527 -16.225,0.37318 -35.125,0.68665 -42,0.6966 -11.53336,0.0167 -12.19068,0.11589 -8.5,1.2828 l 4,1.26472 -4.72669,0.71305 c -2.59968,0.39218 -4.98874,1.13706 -5.30902,1.65528 -0.74535,1.206 -2.33011,1.10227 -5.46429,-0.35767 z"
       id="path4434"
       inkscape:connector-curvature="0" />
    <text
       xml:space="preserve"
       style="font-size:71.22705841px;font-style:normal;font-variant:normal;font-weight:900;font-stretch:normal;text-align:start;line-height:125%;letter-spacing:0px;word-spacing:0px;writing-mode:lr-tb;text-anchor:start;fill:#ff0000;fill-opacity:1;stroke:none;font-family:Arial Black;-inkscape-font-specification:'Arial Black, Heavy'"
       x="66.954895"
       y="602.08008"
       id="text4968"
       sodipodi:linespacing="125%"><tspan
         sodipodi:role="line"
         id="tspan4970"
         x="66.954895"
         y="602.08008">ME GUSTA</tspan></text>
  </g>
</svg>
